<?xml version="1.0" encoding="UTF-8"?>
<svg width="320px" height="448px" viewBox="0 0 320 448" version="1.1" xmlns="http://www.w3.org/2000/svg" xmlns:xlink="http://www.w3.org/1999/xlink">
    <defs>
        <linearGradient x1="36.8275583%" y1="0%" x2="63.1730279%" y2="100%" id="linearGradient-1">
            <stop stop-color="#FEBD11" offset="0%"></stop>
            <stop stop-color="#FEDD36" stop-opacity="0.3" offset="60%"></stop>
            <stop stop-color="#FEDD36" stop-opacity="0.1" offset="100%"></stop>
        </linearGradient>
    </defs>
    <g id="🔴-1.-Product-Page" stroke="none" stroke-width="1" fill="none" fill-rule="evenodd">
        <g id="1_ISA-Product-Page_320" transform="translate(0.000000, -172.000000)">
            <g id="Hero" transform="translate(0.000000, 60.000000)">
                <g id="Background">
                    <g id="Shapes-Group" transform="translate(0.000000, 112.000000)">
                        <g id="Trianlge_White" transform="translate(40.000000, 0.000000)" fill="#FFFFFF">
                            <polygon id="Triangle" transform="translate(140.000000, 101.362007) scale(-1, 1) rotate(270.000000) translate(-140.000000, -101.362007) " points="38.8888889 -38.6379928 241.111111 -38.6379928 140 241.362007"></polygon>
                        </g>
                        <rect id="Rectangle" fill="#FEBD11" x="0" y="115" width="320" height="333"></rect>
                        <g id="Triangle_Half" transform="translate(160.000000, 58.000000) scale(-1, 1) translate(-160.000000, -58.000000) " fill="#FEBD11">
                            <polygon id="Trapezoid" transform="translate(160.000000, 57.921147) rotate(-90.000000) translate(-160.000000, -57.921147) " points="102.078853 217.921147 102.078853 -102.078853 217.921147 217.921147"></polygon>
                        </g>
                        <g id="Triangle_Gradient" fill="url(#linearGradient-1)">
                            <polygon id="Triangle" transform="translate(160.000000, 116.000000) scale(-1, 1) rotate(270.000000) translate(-160.000000, -116.000000) " points="44.2871287 -44 275.712871 -44 160 276"></polygon>
                        </g>
                    </g>
                </g>
            </g>
        </g>
    </g>
</svg>
