<svg xmlns="http://www.w3.org/2000/svg" width="15" height="15" viewBox="0 0 15 15"><g id="Artwork_-_expanded" data-name="Artwork - expanded"><path d="M14.5,15H.5a.5.5,0,0,1-.5-.5v-5a.5.5,0,0,1,1,0V14H14V9.5a.5.5,0,0,1,1,0v5A.5.5,0,0,1,14.5,15Z" style="fill:#40474f"/><path d="M7.5,11a.5.5,0,0,1-.5-.5V.5a.5.5,0,0,1,1,0v10A.5.5,0,0,1,7.5,11Z" style="fill:#40474f"/><path d="M7.5,12a.5.5,0,0,1-.35-.15L3.61,8.32a.5.5,0,0,1,.71-.71l3.54,3.54A.5.5,0,0,1,7.5,12Z" style="fill:#40474f"/><path d="M7.5,12a.5.5,0,0,1-.35-.85l3.54-3.54a.5.5,0,0,1,.71.71L7.85,11.85A.5.5,0,0,1,7.5,12Z" style="fill:#40474f"/></g></svg>
