<?xml version="1.0" encoding="UTF-8"?>
<svg width="24px" height="24px" viewBox="0 0 24 24" version="1.1" xmlns="http://www.w3.org/2000/svg" xmlns:xlink="http://www.w3.org/1999/xlink">
    <title>7CD4E046-F4C4-4E4E-A16F-485CE4A0E871</title>
    <g id="🟢-1.-Product-Page" stroke="none" stroke-width="1" fill="none" fill-rule="evenodd">
        <g id="1_ISA-Product-Page_1366" transform="translate(-1127.000000, -1392.000000)">
            <g id="In-Page-Menu" transform="translate(0.000000, 1368.000000)">
                <g id="Tab" transform="translate(1055.000000, 24.000000)">
                    <g id="Group-10">
                        <g id="Icon" transform="translate(72.000000, 0.000000)">
                            <path d="M7.5,15.0985073 C6.00517339,14.1153444 5,12.4229127 5,10.5 C5,7.46243388 7.46243388,5 10.5,5 C12.4678625,5 14.1943424,5.94619233 15.1662853,7.5" id="Rectangle" stroke="#FEBD11" stroke-linecap="round"></path>
                            <path d="M7.5,20.03808 C3.44964873,18.7597851 0.5,14.9728289 0.5,10.5 C0.5,8.48752923 1.09447685,6.61390597 2.11740374,5.04515703 C3.90170731,2.30876955 6.98962327,0.5 10.5,0.5 C14.9881326,0.5 18.7856912,3.42816423 20.0511128,7.5" id="Rectangle" stroke="#1E2630" stroke-linecap="round"></path>
                            <path d="M21.5,10.5 L18.121,13.879 L23.1693245,18.9266838 L23.2279221,18.9852814 L18.9852814,23.2279221 L13.879,18.121 L10.5,21.5 L10.5,10.5 L21.5,10.5 Z" id="Combined-Shape" stroke="#1E2630" fill="#FFFFFF" stroke-linejoin="round"></path>
                        </g>
                    </g>
                </g>
            </g>
        </g>
    </g>
</svg>