<?xml version="1.0" encoding="UTF-8"?>
<svg width="80px" height="80px" viewBox="0 0 80 80" version="1.1" xmlns="http://www.w3.org/2000/svg" xmlns:xlink="http://www.w3.org/1999/xlink">
    <title>CD56EF5B-153B-4B40-8B79-0F5F80A63520</title>
    <g id="Final" stroke="none" stroke-width="1" fill="none" fill-rule="evenodd" stroke-linecap="round">
        <g id="Features_Grey_Contained_Heading_XL" transform="translate(-261.000000, -316.000000)">
            <g id="Features" transform="translate(97.000000, 272.000000)">
                <g id="01-Card" transform="translate(32.000000, 44.000000)">
                    <g id="03-Icon-" transform="translate(132.000000, 0.000000)">
                        <g id="investment" transform="translate(5.000000, 0.000000)">
                            <line x1="45.1851852" y1="33.362963" x2="45.1851852" y2="75.0222222" id="Path" stroke="#1E2630"></line>
                            <ellipse id="Oval" stroke="#1E2630" cx="11.8518519" cy="51.1407407" rx="11.1111111" ry="3.7037037"></ellipse>
                            <path d="M22.962963,57.0666667 C22.962963,59.1111111 17.9851852,60.7703704 11.8518519,60.7703704 C5.71851852,60.7703704 0.740740741,59.1111111 0.740740741,57.0666667" id="Path" stroke="#1E2630"></path>
                            <path d="M22.962963,62.9925926 C22.962963,65.037037 17.9851852,66.6962963 11.8518519,66.6962963 C5.71851852,66.6962963 0.740740741,65.037037 0.740740741,62.9925926" id="Path" stroke="#1E2630"></path>
                            <path d="M22.962963,68.9185185 C22.962963,70.962963 17.9851852,72.6222222 11.8518519,72.6222222 C5.71851852,72.6222222 0.740740741,70.962963 0.740740741,68.9185185" id="Path" stroke="#1E2630"></path>
                            <path d="M22.962963,74.8444444 C22.962963,76.8888889 17.9851852,78.5481481 11.8518519,78.5481481 C5.71851852,78.5481481 0.740740741,76.8888889 0.740740741,74.8444444" id="Path" stroke="#1E2630"></path>
                            <line x1="0.740740741" y1="51.8814815" x2="0.740740741" y2="74.8444444" id="Path" stroke="#1E2630"></line>
                            <ellipse id="Oval" stroke="#1E2630" cx="56.2962963" cy="51.1407407" rx="11.1111111" ry="3.7037037"></ellipse>
                            <path d="M67.4074074,57.0666667 C67.4074074,59.1111111 62.4296296,60.7703704 56.2962963,60.7703704 C50.162963,60.7703704 45.1851852,59.1111111 45.1851852,57.0666667" id="Path" stroke="#1E2630"></path>
                            <path d="M67.4074074,62.9925926 C67.4074074,65.037037 62.4296296,66.6962963 56.2962963,66.6962963 C50.162963,66.6962963 45.1851852,65.037037 45.1851852,62.9925926" id="Path" stroke="#1E2630"></path>
                            <path d="M67.4074074,68.9185185 C67.4074074,70.962963 62.4296296,72.6222222 56.2962963,72.6222222 C50.162963,72.6222222 45.1851852,70.962963 45.1851852,68.9185185" id="Path" stroke="#1E2630"></path>
                            <path d="M67.4074074,74.8444444 C67.4074074,76.8888889 62.4296296,78.5481481 56.2962963,78.5481481 C50.162963,78.5481481 45.1851852,76.8888889 45.1851852,74.8444444" id="Path" stroke="#1E2630"></path>
                            <line x1="67.4074074" y1="51.8814815" x2="67.4074074" y2="74.8444444" id="Path" stroke="#1E2630"></line>
                            <ellipse id="Oval" stroke="#1E2630" cx="34.0740741" cy="33.362963" rx="11.1111111" ry="3.7037037"></ellipse>
                            <path d="M45.1851852,57.0666667 C45.1851852,59.1111111 40.2074074,60.7703704 34.0740741,60.7703704 C27.9407407,60.7703704 22.962963,59.1111111 22.962963,57.0666667" id="Path" stroke="#1E2630"></path>
                            <path d="M45.1851852,51.1407407 C45.1851852,53.1851852 40.2074074,54.8444444 34.0740741,54.8444444 C27.9407407,54.8444444 22.962963,53.1851852 22.962963,51.1407407" id="Path" stroke="#1E2630"></path>
                            <path d="M45.1851852,45.2148148 C45.1851852,47.2592593 40.2074074,48.9185185 34.0740741,48.9185185 C27.9407407,48.9185185 22.962963,47.2592593 22.962963,45.2148148" id="Path" stroke="#1E2630"></path>
                            <path d="M45.1851852,39.2888889 C45.1851852,41.3333333 40.2074074,42.9925926 34.0740741,42.9925926 C27.9407407,42.9925926 22.962963,41.3333333 22.962963,39.2888889" id="Path" stroke="#1E2630"></path>
                            <path d="M45.1851852,62.9925926 C45.1851852,65.037037 40.2074074,66.6962963 34.0740741,66.6962963 C27.9407407,66.6962963 22.962963,65.037037 22.962963,62.9925926" id="Path" stroke="#1E2630"></path>
                            <path d="M45.1851852,68.9185185 C45.1851852,70.962963 40.2074074,72.6222222 34.0740741,72.6222222 C27.9407407,72.6222222 22.962963,70.962963 22.962963,68.9185185" id="Path" stroke="#1E2630"></path>
                            <path d="M45.1851852,74.8444444 C45.1851852,76.8888889 40.2074074,78.5481481 34.0740741,78.5481481 C27.9407407,78.5481481 22.962963,76.8888889 22.962963,74.8444444" id="Path" stroke="#1E2630"></path>
                            <line x1="22.962963" y1="33.362963" x2="22.962963" y2="75.0222222" id="Path" stroke="#1E2630"></line>
                            <line x1="10.7407407" y1="40.0296296" x2="10.7407407" y2="22.2518519" id="Path" stroke="#FCBC31"></line>
                            <polyline id="Path" stroke="#FCBC31" stroke-linejoin="round" points="5.4962963 22.9925926 10.7407407 17.7481481 15.9851852 22.9925926"></polyline>
                            <line x1="33.3333333" y1="23.7333333" x2="33.3333333" y2="5.95555556" id="Path" stroke="#FCBC31"></line>
                            <polyline id="Path" stroke="#FCBC31" stroke-linejoin="round" points="28.0888889 6.6962963 33.3333333 1.45185185 38.5777778 6.6962963"></polyline>
                            <line x1="57.037037" y1="40.0296296" x2="57.037037" y2="22.2518519" id="Path" stroke="#FCBC31"></line>
                            <polyline id="Path" stroke="#FCBC31" stroke-linejoin="round" points="51.7925926 22.9925926 57.037037 17.7481481 62.2814815 22.9925926"></polyline>
                        </g>
                    </g>
                </g>
            </g>
        </g>
    </g>
</svg>