<svg xmlns="http://www.w3.org/2000/svg" width="80px" height="80px" viewBox="0 0 80 80">
  <g fill="none" transform="translate(13 25)">
    <path fill="#1E2630" d="M8.5,10 L8.5,6 L4.5,6 C4.22385763,6 4,5.77614237 4,5.5 C4,5.22385763 4.22385763,5 4.5,5 L49.5,5 C49.7761424,5 50,5.22385763 50,5.5 C50,5.77614237 49.7761424,6 49.5,6 L46,6 L46,10 L52.5,10 C52.7761424,10 53,9.77614237 53,9.5 L53,1.5 C53,1.22385763 52.7761424,1 52.5,1 L1.5,1 C1.22385763,1 1,1.22385763 1,1.5 L1,9.5 C1,9.77614237 1.22385763,10 1.5,10 L8.5,10 Z M8.5,11 L1.5,11 C0.671572875,11 0,10.3284271 0,9.5 L0,1.5 C0,0.671572875 0.671572875,0 1.5,0 L52.5,0 C53.3284271,0 54,0.671572875 54,1.5 L54,9.5 C54,10.3284271 53.3284271,11 52.5,11 L46,11 L46,27.41 C46.0000525,28.5565095 45.076457,29.4890286 43.93,29.5 L10.59,29.5 C9.43572487,29.5 8.5,28.5642751 8.5,27.41 L8.5,11 Z M9.5,6 L9.5,27.41 C9.5,28.0119904 9.98800962,28.5 10.59,28.5 L43.93,28.5 C44.5241656,28.4890961 45.0001,28.0042656 45,27.41 L45,6 L9.5,6 Z"/>
    <path fill="#FEBD11" d="M27.26,26.28 C21.9414979,26.28 17.63,21.9685021 17.63,16.65 C17.63,11.3314979 21.9414979,7.02 27.26,7.02 C32.5785021,7.02 36.89,11.3314979 36.89,16.65 C36.8844881,21.9662174 32.5762174,26.2744881 27.26,26.28 Z M27.26,8.02 C22.4937826,8.02 18.63,11.8837826 18.63,16.65 C18.63,21.4162174 22.4937826,25.28 27.26,25.28 C32.0262174,25.28 35.89,21.4162174 35.89,16.65 C35.8926537,14.3585291 34.9849146,12.1598568 33.3664754,10.5376668 C31.7480361,8.91547678 29.5514709,8.00265063 27.26,8 L27.26,8.02 Z"/>
    <path fill="#FEBD11" d="M24.59,20.56 L24.59,16.85 L23.91,16.85 C23.6338576,16.85 23.41,16.6261424 23.41,16.35 C23.41,16.0738576 23.6338576,15.85 23.91,15.85 L24.59,15.85 L24.59,14.58 C24.5936248,13.188687 25.4326164,11.9357116 26.7176842,11.4024521 C28.002752,10.8691927 29.4823709,11.1600237 30.47,12.14 C30.6660611,12.3360611 30.6660611,12.6539389 30.47,12.85 C30.2739389,13.0460611 29.9560611,13.0460611 29.76,12.85 C29.0584991,12.1584093 28.0110106,11.954225 27.1011174,12.3317107 C26.1912241,12.7091964 25.5959071,13.5949283 25.59,14.58 L25.59,15.85 L28,15.85 C28.2761424,15.85 28.5,16.0738576 28.5,16.35 C28.5,16.6261424 28.2761424,16.85 28,16.85 L25.59,16.85 L25.59,20.56 L30.39,20.56 C30.6661424,20.56 30.89,20.7838576 30.89,21.06 C30.89,21.3361424 30.6661424,21.56 30.39,21.56 L23.32,21.56 C23.0438576,21.56 22.82,21.3361424 22.82,21.06 C22.82,20.7838576 23.0438576,20.56 23.32,20.56 L24.59,20.56 Z"/>
  </g>
</svg>
