<svg width="48px" height="48px" viewBox="0 0 48 48" version="1.1" xmlns="http://www.w3.org/2000/svg"
    xmlns:xlink="http://www.w3.org/1999/xlink">
    <g id="🎨-UI-Design" stroke="none" stroke-width="1" fill="none" fill-rule="evenodd">
        <g id="NC_Profession-Selector_1366" transform="translate(-658.000000, -595.000000)">
            <g id="Profession-cards" transform="translate(197.000000, 372.000000)">
                <g id="Btn-Copy-4" transform="translate(366.000000, 200.000000)">
                    <g id="Legal" transform="translate(95.000000, 23.000000)">
                        <g id="Occupation---doctor" transform="translate(0.000000, 0.041667)">
                            <g id="Group-10" transform="translate(0.000000, 35.047619)"></g>
                            <path
                                d="M25.9309951,36.3042622 C27.0574857,36.3042622 28.074997,36.850031 28.8137017,37.7187011 C29.5771938,38.6165196 30.0454545,39.8582374 30.0454545,41.230575 L30.0454545,41.230575 L30.0454545,45.1614051 L1.59090909,45.1614051 L1.59090909,41.230575 C1.59090909,39.8582374 2.05916979,38.6165196 2.8226619,37.7187011 C3.5613666,36.850031 4.57887796,36.3042622 5.70536849,36.3042622 L5.70536849,36.3042622 Z"
                                id="Path" stroke="#FEBD11" fill="#FFFFFF"></path>
                            <path
                                d="M20.1580442,2.89898735 L28.5969506,11.3713815 L24.7866935,15.1967587 L46.8566171,37.3542614 C47.2856514,37.7849983 47.5,38.3495909 47.5,38.9140975 C47.5,39.478604 47.2856514,40.0431966 46.8566171,40.4739335 C46.4283546,40.9038954 45.8670918,41.1190476 45.3057413,41.1190476 C44.7443908,41.1190476 44.1831281,40.9038954 43.7548656,40.4739335 L43.7548656,40.4739335 L21.682147,18.3136248 L17.8718899,22.139002 L9.43298345,13.6666078 L20.1580442,2.89898735 Z"
                                id="gavel-handle" stroke="#1E2630" fill="#FFFFFF"></path>
                            <path
                                d="M20.6424692,0.5 C21.0509717,0.5 21.4593863,0.656611222 21.7710297,0.969491276 L21.7710297,0.969491276 L30.6679095,9.90167611 C30.9803246,10.215331 31.1363636,10.6264691 31.1363636,11.037521 C31.1363636,11.4485729 30.9803246,11.859711 30.6679095,12.1733659 C30.3562661,12.4862459 29.9478514,12.6428571 29.539349,12.6428571 C29.1308465,12.6428571 28.7224319,12.4862459 28.4107885,12.1733659 L28.4107885,12.1733659 L19.5139087,3.24118103 C19.2014936,2.92752613 19.0454545,2.51638808 19.0454545,2.10533616 C19.0454545,1.69428423 19.2014936,1.28314618 19.5139087,0.969491276 C19.8255521,0.656611222 20.2339668,0.5 20.6424692,0.5 Z"
                                id="gavel-head" stroke="#1E2630" fill="#FFFFFF"></path>
                            <path
                                d="M8.64246921,12.547619 C9.05097166,12.547619 9.45938633,12.7042303 9.7710297,13.0171103 L9.7710297,13.0171103 L18.6679095,21.9492952 C18.9803246,22.2629501 19.1363636,22.6740881 19.1363636,23.08514 C19.1363636,23.496192 18.9803246,23.90733 18.6679095,24.2209849 C18.3562661,24.533865 17.9478514,24.6904762 17.539349,24.6904762 C17.1308465,24.6904762 16.7224319,24.533865 16.4107885,24.2209849 L16.4107885,24.2209849 L7.51390872,15.2888001 C7.20149356,14.9751452 7.04545455,14.5640071 7.04545455,14.1529552 C7.04545455,13.7419033 7.20149356,13.3307652 7.51390872,13.0171103 C7.8255521,12.7042303 8.23396677,12.547619 8.64246921,12.547619 Z"
                                id="gavel-head" stroke="#1E2630" fill="#FFFFFF"></path>
                            <polygon id="Line-9" fill="#1E2630" fill-rule="nonzero"
                                points="20.407753 20.3086067 19.6363636 19.5341565 26.7660361 12.3761907 27.5374254 13.1506409">
                            </polygon>
                        </g>
                    </g>
                </g>
            </g>
        </g>
    </g>
</svg>
