<?xml version="1.0" encoding="UTF-8"?>
<svg width="48px" height="48px" viewBox="0 0 48 48" version="1.1" xmlns="http://www.w3.org/2000/svg" xmlns:xlink="http://www.w3.org/1999/xlink">
    <title>Icons/Pictogram/Heart</title>
    <g id="Icons/Pictogram/Heart" stroke="none" stroke-width="1" fill="none" fill-rule="evenodd">
        <path d="M34.7608696,3.5 C29.9483722,3.5 25.8122443,6.48911734 24,10.7667949 C22.1877557,6.48911734 18.0516278,3.5 13.2391304,3.5 C6.75578772,3.5 1.5,8.92500213 1.5,15.6170814 C1.5,15.8071739 1.5,16.4743948 1.5,16.6268382 C1.5,24.761643 16.1722423,41.5761092 24,44.5 C31.8277577,41.5761092 46.5,24.761643 46.5,16.6268382 C46.5,14.5 46.5,15.8071739 46.5,15.6170814 C46.5,8.92500213 41.2442123,3.5 34.7608696,3.5 Z" id="heart" stroke="#1E2630" stroke-linecap="round" stroke-linejoin="round"></path>
        <path d="M11.3633752,9 L11.3633752,12.8638975 C11.3633752,13.1400399 11.1395176,13.3638975 10.8633752,13.3638975 L7,13.3638975 L7,15.6361025 L10.8633752,15.6361025 C11.1395176,15.6361025 11.3633752,15.8599601 11.3633752,16.1361025 L11.3633752,20 L13.6366248,20 L13.6366248,16.1361025 C13.6366248,15.8599601 13.8604824,15.6361025 14.1366248,15.6361025 L18,15.6361025 L18,13.3638975 L14.1366248,13.3638975 C13.8604824,13.3638975 13.6366248,13.1400399 13.6366248,12.8638975 L13.6366248,9 L11.3633752,9 Z M10.3633752,8.5 C10.3633752,8.22385763 10.5872328,8 10.8633752,8 L14.1366248,8 C14.4127672,8 14.6366248,8.22385763 14.6366248,8.5 L14.6366248,12.3638975 L18.5,12.3638975 C18.7761424,12.3638975 19,12.5877552 19,12.8638975 L19,16.1361025 C19,16.4122448 18.7761424,16.6361025 18.5,16.6361025 L14.6366248,16.6361025 L14.6366248,20.5 C14.6366248,20.7761424 14.4127672,21 14.1366248,21 L10.8633752,21 C10.5872328,21 10.3633752,20.7761424 10.3633752,20.5 L10.3633752,16.6361025 L6.5,16.6361025 C6.22385763,16.6361025 6,16.4122448 6,16.1361025 L6,12.8638975 C6,12.5877552 6.22385763,12.3638975 6.5,12.3638975 L10.3633752,12.3638975 L10.3633752,8.5 Z" id="plus" fill="#FEBD11" fill-rule="nonzero"></path>
    </g>
</svg>