<svg xmlns="http://www.w3.org/2000/svg" width="80" height="80" viewBox="0 0 80 80">
  <path fill="#1E2630" d="M40.07 38.95C38.4131458 38.95 37.07 37.6068542 37.07 35.95 37.07 34.2931458 38.4131458 32.95 40.07 32.95 41.7268542 32.95 43.07 34.2931458 43.07 35.95 43.07 37.6068542 41.7268542 38.95 40.07 38.95zM40.07 33.95C38.9654305 33.95 38.07 34.8454305 38.07 35.95 38.07 37.0545695 38.9654305 37.95 40.07 37.95 41.1745695 37.95 42.07 37.0545695 42.07 35.95 42.0726609 35.4178365 41.8631224 34.9065559 41.4877609 34.5293175 41.1123993 34.1520792 40.6021701 33.9399933 40.07 33.94L40.07 33.95zM44.67 61.5L42.17 61.5C41.8938576 61.5 41.67 61.2761424 41.67 61L41.67 51.81C41.67 51.5338576 41.8938576 51.31 42.17 51.31L43 51.31C43.6461732 51.31 44.17 50.7861732 44.17 50.14L44.17 43.46C44.17 42.3554305 43.2745695 41.46 42.17 41.46L38 41.46C36.8954305 41.46 36 42.3554305 36 43.46L36 50.14C36 50.4503033 36.1232675 50.7478974 36.3426851 50.9673149 36.5621026 51.1867325 36.8596967 51.31 37.17 51.31L38.17 51.31C38.4461424 51.31 38.67 51.5338576 38.67 51.81L38.67 61C38.67 61.2761424 38.4461424 61.5 38.17 61.5L35.69 61.5C35.4138576 61.5 35.19 61.2761424 35.19 61 35.19 60.7238576 35.4138576 60.5 35.69 60.5L37.69 60.5 37.69 52.31 37.15 52.31C35.9593599 52.2990259 34.9999494 51.3306907 35 50.14L35 43.46C35 41.8031458 36.3431458 40.46 38 40.46L42.18 40.46C43.8368542 40.46 45.18 41.8031458 45.18 43.46L45.18 50.14C45.1800061 50.7172566 44.9500096 51.2707255 44.5408903 51.6779681 44.1317709 52.0852107 43.5772505 52.3126602 43 52.31L42.67 52.31 42.67 60.5 44.67 60.5C44.9461424 60.5 45.17 60.7238576 45.17 61 45.17 61.2761424 44.9461424 61.5 44.67 61.5zM23.3 26.89C20.8975613 26.89 18.95 24.9424387 18.95 22.54 18.95 20.1375613 20.8975613 18.19 23.3 18.19 25.7024387 18.19 27.65 20.1375613 27.65 22.54 27.65 24.9424387 25.7024387 26.89 23.3 26.89zM23.3 19.2C21.4498461 19.2 19.95 20.6998461 19.95 22.55 19.95 24.4001539 21.4498461 25.9 23.3 25.9 25.1501539 25.9 26.65 24.4001539 26.65 22.55 26.65 21.6615248 26.2970546 20.8094392 25.6688077 20.1811923 25.0405608 19.5529454 24.1884752 19.2 23.3 19.2zM30.35 61.5L26.51 61.5C26.3756677 61.5026872 26.2459065 61.4511975 26.1499643 61.3571364 26.054022 61.2630754 25.9999731 61.1343592 26 61L26 46.9C26 46.6238576 26.2238576 46.4 26.5 46.4L27.78 46.4C28.9154323 46.3945279 29.8345279 45.4754323 29.84 44.34L29.84 34.08C29.84 32.2298461 28.3401539 30.73 26.49 30.73L20.1 30.73C18.2498461 30.73 16.75 32.2298461 16.75 34.08L16.75 44.33C16.7554721 45.4654323 17.6745677 46.3845279 18.81 46.39L20.41 46.39C20.6861424 46.39 20.91 46.6138576 20.91 46.89L20.91 61C20.91 61.2761424 20.6861424 61.5 20.41 61.5L16.57 61.5C16.2938576 61.5 16.07 61.2761424 16.07 61 16.07 60.7238576 16.2938576 60.5 16.57 60.5L19.92 60.5 19.92 47.4 18.82 47.4C17.1322873 47.3945115 15.7654885 46.0277127 15.76 44.34L15.76 34.08C15.76 31.6775613 17.7075613 29.73 20.11 29.73L26.52 29.73C28.9224387 29.73 30.87 31.6775613 30.87 34.08L30.87 44.33C30.8645115 46.0177127 29.4977127 47.3845115 27.81 47.39L27 47.39 27 60.5 30.35 60.5C30.6261424 60.5 30.85 60.7238576 30.85 61 30.85 61.2761424 30.6261424 61.5 30.35 61.5zM56.63 26.89C54.2301958 26.8789663 52.292673 24.9265463 52.3000204 22.5267279 52.3073677 20.1269096 54.2568092 18.18639 56.656636 18.190051 59.0564628 18.193712 60.9999746 20.1401704 61 22.54 61.0000122 23.6971653 60.5389656 24.8066466 59.7188516 25.6230072 58.8987376 26.4393678 57.7871531 26.8953203 56.63 26.89zM56.63 19.2C54.7811904 19.211046 53.2908635 20.7177771 53.3000562 22.5665968 53.3092488 24.4154165 54.8144851 25.9072531 56.6633132 25.8999138 58.5121412 25.8925745 60.0054859 24.3888344 60 22.54 59.9973585 21.649783 59.6404974 20.7972261 59.0082081 20.1705655 58.3759188 19.5439049 57.520205 19.1946813 56.63 19.2zM63.68 61.5L59.84 61.5C59.5638576 61.5 59.34 61.2761424 59.34 61L59.34 46.9C59.34 46.6238576 59.5638576 46.4 59.84 46.4L61.12 46.4C62.2554323 46.3945279 63.1745279 45.4754323 63.18 44.34L63.18 34.08C63.18 32.2298461 61.6801539 30.73 59.83 30.73L53.43 30.73C51.5798461 30.73 50.08 32.2298461 50.08 34.08L50.08 44.33C50.0854721 45.4654323 51.0045677 46.3845279 52.14 46.39L53.74 46.39C54.0161424 46.39 54.24 46.6138576 54.24 46.89L54.24 61C54.24 61.2761424 54.0161424 61.5 53.74 61.5L49.9 61.5C49.6238576 61.5 49.4 61.2761424 49.4 61 49.4 60.7238576 49.6238576 60.5 49.9 60.5L53.25 60.5 53.25 47.4 52.15 47.4C50.4622873 47.3945115 49.0954885 46.0277127 49.09 44.34L49.09 34.08C49.09 31.6775613 51.0375613 29.73 53.44 29.73L59.85 29.73C62.2524387 29.73 64.2 31.6775613 64.2 34.08L64.2 44.33C64.1945115 46.0177127 62.8277127 47.3845115 61.14 47.39L60.36 47.39 60.36 60.5 63.71 60.5C63.9861424 60.5 64.21 60.7238576 64.21 61 64.21 61.2761424 63.9861424 61.5 63.71 61.5L63.68 61.5z"/>
</svg>
