<?xml version="1.0" encoding="UTF-8"?>
<svg width="48px" height="48px" viewBox="0 0 48 48" version="1.1" xmlns="http://www.w3.org/2000/svg" xmlns:xlink="http://www.w3.org/1999/xlink">
    <title>Icons/Pictogram/Book</title>
    <g id="Icons/Pictogram/Book" stroke="none" stroke-width="1" fill="none" fill-rule="evenodd">
        <path d="M20.0540541,8.5 C21.7804801,8.5 23.2956663,9.30127759 24.0807079,10.509716 C24.2533461,10.7754633 24.3936421,11.0654694 24.5000793,11.3727324 C24.6064358,11.0653084 24.7467018,10.7753896 24.9192921,10.509716 C25.7043337,9.30127759 27.2195199,8.5 28.9459459,8.5 L28.9459459,8.5 L46.7297297,8.5 C46.9524252,8.5 47.1564377,8.5726216 47.3032021,8.69798381 L47.3032021,8.69798381 L47.5,40 C47.1564377,40.5124094 46.9524252,40.585031 46.7297297,40.585031 L46.7297297,40.585031 L29.0004953,40.585031 C28.0858371,41.921328 26.3995678,42.5 24.5,42.5 C22.6004322,42.5 20.9141629,41.921328 19.9995047,40.585031 L19.9995047,40.585031 L2.27027027,40.585031 C2.04757482,40.585031 1.84356231,40.5124094 1.69679794,40.3870472 L1.69679794,40.3870472 L1.5,9.085031 C1.84356231,8.5726216 2.04757482,8.5 2.27027027,8.5 L2.27027027,8.5 Z" id="BookB-StrokeandFill" stroke="#1E2630"></path>
        <path d="M42,5.5 L42.5,34 L27.9649695,34.5 C27.2732255,35.6954768 25.9806163,36.5 24.5,36.5 C23.0193837,36.5 21.7267745,35.6954768 21.0350305,34.5 L21.0350305,34.5 L7,34.5 L6.5,6 L21,5.5 C21.6472784,5.5 22.2535819,5.67555634 22.7736734,5.98196396 C23.3125116,6.29941614 23.7589313,6.75698869 24.0627996,7.30459858 C24.3249936,7.77710597 24.4741471,8.30419758 24.5000038,8.84140714 C24.525874,8.30412302 24.675025,7.77707254 24.9372004,7.30459858 C25.2410687,6.75698869 25.6874884,6.29941614 26.2263266,5.98196396 C26.7464181,5.67555634 27.3527216,5.5 28,5.5 L28,5.5 L42,5.5 Z" id="BookA1-StrokeandFill" stroke="#1E2630" fill="#FFFFFF"></path>
        <path d="M9.5,12 C9.22385763,12 9,11.7761424 9,11.5 C9,11.2238576 9.22385763,11 9.5,11 L20.5,11 C20.7761424,11 21,11.2238576 21,11.5 C21,11.7761424 20.7761424,12 20.5,12 L9.5,12 Z" id="Line" fill="#FEBD11" fill-rule="nonzero"></path>
        <path d="M9.5,15 C9.22385763,15 9,14.7761424 9,14.5 C9,14.2238576 9.22385763,14 9.5,14 L20.5,14 C20.7761424,14 21,14.2238576 21,14.5 C21,14.7761424 20.7761424,15 20.5,15 L9.5,15 Z" id="Line-Copy" fill="#FEBD11" fill-rule="nonzero"></path>
        <path d="M9.5,18 C9.22385763,18 9,17.7761424 9,17.5 C9,17.2238576 9.22385763,17 9.5,17 L20.5,17 C20.7761424,17 21,17.2238576 21,17.5 C21,17.7761424 20.7761424,18 20.5,18 L9.5,18 Z" id="Line-Copy-2" fill="#FEBD11" fill-rule="nonzero"></path>
        <path d="M9.5,21 C9.22385763,21 9,20.7761424 9,20.5 C9,20.2238576 9.22385763,20 9.5,20 L20.5,20 C20.7761424,20 21,20.2238576 21,20.5 C21,20.7761424 20.7761424,21 20.5,21 L9.5,21 Z" id="Line-Copy-3" fill="#FEBD11" fill-rule="nonzero"></path>
        <path d="M9.5,24 C9.22385763,24 9,23.7761424 9,23.5 C9,23.2238576 9.22385763,23 9.5,23 L20.5,23 C20.7761424,23 21,23.2238576 21,23.5 C21,23.7761424 20.7761424,24 20.5,24 L9.5,24 Z" id="Line-Copy-4" fill="#FEBD11" fill-rule="nonzero"></path>
        <path d="M28.5,12 C28.2238576,12 28,11.7761424 28,11.5 C28,11.2238576 28.2238576,11 28.5,11 L39.5,11 C39.7761424,11 40,11.2238576 40,11.5 C40,11.7761424 39.7761424,12 39.5,12 L28.5,12 Z" id="Line" fill="#FEBD11" fill-rule="nonzero"></path>
        <path d="M28.5,15 C28.2238576,15 28,14.7761424 28,14.5 C28,14.2238576 28.2238576,14 28.5,14 L39.5,14 C39.7761424,14 40,14.2238576 40,14.5 C40,14.7761424 39.7761424,15 39.5,15 L28.5,15 Z" id="Line-Copy" fill="#FEBD11" fill-rule="nonzero"></path>
        <path d="M28.5,18 C28.2238576,18 28,17.7761424 28,17.5 C28,17.2238576 28.2238576,17 28.5,17 L39.5,17 C39.7761424,17 40,17.2238576 40,17.5 C40,17.7761424 39.7761424,18 39.5,18 L28.5,18 Z" id="Line-Copy-2" fill="#FEBD11" fill-rule="nonzero"></path>
        <path d="M28.5,21 C28.2238576,21 28,20.7761424 28,20.5 C28,20.2238576 28.2238576,20 28.5,20 L39.5,20 C39.7761424,20 40,20.2238576 40,20.5 C40,20.7761424 39.7761424,21 39.5,21 L28.5,21 Z" id="Line-Copy-3" fill="#FEBD11" fill-rule="nonzero"></path>
        <path d="M28.5,24 C28.2238576,24 28,23.7761424 28,23.5 C28,23.2238576 28.2238576,23 28.5,23 L39.5,23 C39.7761424,23 40,23.2238576 40,23.5 C40,23.7761424 39.7761424,24 39.5,24 L28.5,24 Z" id="Line-Copy-4" fill="#FEBD11" fill-rule="nonzero"></path>
        <path d="M6.5,30.500067 L17,30.500067 C19.4676731,30.4991984 20.8010064,30.5067765 21,30.5228013 C23.3064246,30.7085366 24.5,31.3174554 24.5,32.500067" id="Path-3" stroke="#1E2630" stroke-linejoin="bevel"></path>
        <path d="M24.5,31.0000698 C24.2238576,31.0000698 24,30.7762122 24,30.5000698 C24,30.2239274 24.2238576,30.0000698 24.5,30.0000698 L34.999824,30.0000698 C37.507734,29.999187 38.8194016,30.006642 39.0401348,30.0244175 C41.6279257,30.232811 43,30.9888311 43,32.5000698 C43,32.7762122 42.7761424,33.0000698 42.5,33.0000698 C42.2238576,33.0000698 42,32.7762122 42,32.5000698 C42,31.6948327 41.0885365,31.1926115 38.9598652,31.0211907 C38.7826112,31.0069165 37.4276121,30.9992153 35,31.0000698 L24.5,31.0000698 Z" id="Path-3" fill="#1E2630" fill-rule="nonzero" transform="translate(33.500000, 31.500035) scale(-1, 1) translate(-33.500000, -31.500035) "></path>
        <line x1="24.5" y1="7.5" x2="24.5" y2="31.5" id="Line-3" stroke="#1E2630" stroke-linecap="square"></line>
        <line x1="24.5" y1="36.5" x2="24.5" y2="42.5" id="Line-3" stroke="#1E2630" stroke-linecap="square"></line>
    </g>
</svg>