<?xml version="1.0" encoding="UTF-8"?>
<svg width="34px" height="34px" viewBox="0 0 44 45" version="1.1" xmlns="http://www.w3.org/2000/svg" xmlns:xlink="http://www.w3.org/1999/xlink">
    <!-- Generator: Sketch 51.3 (57544) - http://www.bohemiancoding.com/sketch -->
    <title>icon-calendar-ring</title>
    <desc>Created with Sketch.</desc>
    <defs></defs>
    <g id="Page-1" stroke="none" stroke-width="1" fill="none" fill-rule="evenodd">
        <g id="icon-calendar-ring" fill="#40474F" fill-rule="nonzero">
            <path d="M41.5,45 L2.5,45 C1.11928813,45 3.55271368e-15,43.8807119 3.55271368e-15,42.5 L3.55271368e-15,6.5 C0,5.83695878 0.263392101,5.20107399 0.732233047,4.73223305 C1.20107399,4.2633921 1.83695878,4 2.5,4 L10.5,4 C10.7761424,4 11,4.22385763 11,4.5 C11,4.77614237 10.7761424,5 10.5,5 L2.5,5 C1.67157288,5 1,5.67157288 1,6.5 L1,42.5 C1,43.3284271 1.67157288,44 2.5,44 L41.5,44 C42.3284271,44 43,43.3284271 43,42.5 L43,6.5 C43,5.67157288 42.3284271,5 41.5,5 L33.5,5 C33.2238576,5 33,4.77614237 33,4.5 C33,4.22385763 33.2238576,4 33.5,4 L41.5,4 C42.8807119,4 44,5.11928813 44,6.5 L44,42.5 C44,43.8807119 42.8807119,45 41.5,45 Z" id="Shape"></path>
            <path d="M27.5,5 L16.5,5 C16.2238576,5 16,4.77614237 16,4.5 C16,4.22385763 16.2238576,4 16.5,4 L27.5,4 C27.7761424,4 28,4.22385763 28,4.5 C28,4.77614237 27.7761424,5 27.5,5 Z" id="Shape"></path>
            <rect id="Rectangle-path" x="0.5" y="18" width="43" height="1"></rect>
            <path d="M13.5,8.75 C13.2238576,8.75 13,8.52614237 13,8.25 L13,1.25 C13,0.973857625 13.2238576,0.75 13.5,0.75 C13.7761424,0.75 14,0.973857625 14,1.25 L14,8.25 C14,8.52614237 13.7761424,8.75 13.5,8.75 Z" id="Shape"></path>
            <path d="M30.5,8.75 C30.2238576,8.75 30,8.52614237 30,8.25 L30,1.25 C30,0.973857625 30.2238576,0.75 30.5,0.75 C30.7761424,0.75 31,0.973857625 31,1.25 L31,8.25 C31,8.52614237 30.7761424,8.75 30.5,8.75 Z" id="Shape"></path>
            <path d="M13.5,15 C12.0843821,15 10.8081551,14.1472524 10.2664216,12.839392 C9.72468814,11.5315316 10.0241333,10.0261193 11.0251263,9.02512627 C12.0261193,8.02413328 13.5315316,7.72468814 14.839392,8.26642164 C16.1472524,8.80815514 17,10.0843821 17,11.5 C17,13.4329966 15.4329966,15 13.5,15 Z M13.5,9 C12.1192881,9 11,10.1192881 11,11.5 C11,12.8807119 12.1192881,14 13.5,14 C14.8807119,14 16,12.8807119 16,11.5 C16,10.1192881 14.8807119,9 13.5,9 Z" id="Shape"></path>
            <path d="M30.5,15 C29.0843821,15 27.8081551,14.1472524 27.2664216,12.839392 C26.7246881,11.5315316 27.0241333,10.0261193 28.0251263,9.02512627 C29.0261193,8.02413328 30.5315316,7.72468814 31.839392,8.26642164 C33.1472524,8.80815514 34,10.0843821 34,11.5 C34,13.4329966 32.4329966,15 30.5,15 Z M30.5,9 C29.1192881,9 28,10.1192881 28,11.5 C28,12.8807119 29.1192881,14 30.5,14 C31.8807119,14 33,12.8807119 33,11.5 C33,10.8369588 32.7366079,10.201074 32.267767,9.73223305 C31.798926,9.2633921 31.1630412,9 30.5,9 Z" id="Shape"></path>
        </g>
    </g>
</svg>
