<svg width="20px" height="20px" viewBox="0 0 20 20" version="1.1" xmlns="http://www.w3.org/2000/svg" xmlns:xlink="http://www.w3.org/1999/xlink">
  <g id="Savings-Objective---Objective-description-placement-(UC113)" stroke="none" stroke-width="1" fill="none" fill-rule="evenodd">
	<g id="Budget_Objective_Remodeller_1366" transform="translate(-652.000000, -655.000000)">
	  <g id="03-Content" transform="translate(51.000000, 248.000000)">
		<g id="02-Form" transform="translate(321.000000, 134.000000)">
		  <g id="Sliders---overhang">
			<g id="Slider-03" transform="translate(0.000000, 270.000000)">
			  <g id="Tool-Tip_Icon" transform="translate(280.000000, 3.000000)">
				<circle id="Oval" fill="#FEBD11" cx="10" cy="10" r="10"></circle>
				<path d="M8.95792943,11.5939724 L8.95792943,11.1157025 C8.95792943,10.7020616 9.04625767,10.3422856 9.22291681,10.0363637 C9.39957594,9.7304418 9.72272804,9.40513535 10.1923828,9.0604346 C10.6448025,8.73727765 10.9431797,8.47444727 11.0875231,8.27193559 C11.2318665,8.0694239 11.3040372,7.84321742 11.3040372,7.59330938 C11.3040372,7.31324002 11.2006285,7.09995964 10.993808,6.95346182 C10.7869876,6.806964 10.498305,6.73371619 10.1277517,6.73371619 C9.48143784,6.73371619 8.74465105,6.94484223 7.91736926,7.36710065 L7.21289062,5.95168028 C8.17374396,5.41308536 9.19275026,5.14379194 10.2699401,5.14379194 C11.1575445,5.14379194 11.8630933,5.35707233 12.3866075,5.78363951 C12.9101218,6.21020668 13.171875,6.77895438 13.171875,7.48989967 C13.171875,7.9638632 13.0641576,8.3731892 12.8487197,8.71788995 C12.6332817,9.06259069 12.2239557,9.45037322 11.6207294,9.88124915 C11.2070885,10.1871711 10.9453353,10.4198406 10.8354619,10.5792647 C10.7255886,10.7386888 10.6706527,10.9476605 10.6706527,11.206186 L10.6706527,11.5939724 L8.95792943,11.5939724 Z M8.75111002,13.8043549 C8.75111002,13.4424191 8.84805565,13.168817 9.04194982,12.9835404 C9.23584399,12.7982637 9.51806349,12.7056268 9.8886168,12.7056268 C10.2462438,12.7056268 10.5230775,12.8004181 10.719126,12.9900035 C10.9151746,13.1795889 11.0131974,13.4510367 11.0131974,13.8043549 C11.0131974,14.1447469 10.9140974,14.4129632 10.7158945,14.6090117 C10.5176915,14.8050603 10.2419351,14.9030831 9.8886168,14.9030831 C9.52668101,14.9030831 9.24661586,14.8072146 9.04841293,14.6154748 C8.85021,14.423735 8.75111002,14.1533644 8.75111002,13.8043549 Z" id="?" fill="#FFFFFF"></path>
			  </g>
			</g>
		  </g>
		</g>
	  </g>
	</g>
  </g>
</svg>