<svg width="32" height="32" xmlns="http://www.w3.org/2000/svg">
  <g fill="none" fill-rule="evenodd">
    <circle fill="#FEBD11" cx="10.333" cy="19.667" r="1"/>
    <circle fill="#FEBD11" cx="6.333" cy="19.667" r="1"/>
    <circle fill="#FEBD11" cx="14.333" cy="19.667" r="1"/>
    <path d="M16.667 12.833c.69 0 1.315.28 1.767.733.453.452.733 1.077.733 1.767h0v8.711c0 .69-.28 1.316-.733 1.768a2.492 2.492 0 01-1.767.732h0H5.419L.833 32.048V15.333c0-.69.28-1.315.733-1.767a2.492 2.492 0 011.767-.733h0z" stroke="#1E2630" stroke-linejoin="round"/>
    <path d="M28.667.833c.69 0 1.315.28 1.767.733.453.452.733 1.077.733 1.767h0v8.711c0 .69-.28 1.316-.733 1.768a2.492 2.492 0 01-1.767.732h0-11.248l-4.586 5.504V3.333c0-.69.28-1.315.733-1.767a2.492 2.492 0 011.767-.733h0z" stroke="#1E2630" fill="#FFF" stroke-linejoin="round"/>
    <path stroke="#FEBD11" stroke-linecap="round" stroke-linejoin="round" d="M16.667 6h10.666M16.667 8.667h8"/>
  </g>
</svg>