<svg xmlns="http://www.w3.org/2000/svg" viewBox="0 0 80 80">
	<g fill="#1e2630" data-name="Artwork - expanded">
		<path d="M56.85 55a.5.5 0 0 1-.3-.9 11.17 11.17 0 1 0-13.76-.27.5.5 0 1 1-.63.78 12.17 12.17 0 1 1 15 .29.5.5 0 0 1-.31.1zM30.58 38.67a8.08 8.08 0 1 1 8.08-8.08 8.09 8.09 0 0 1-8.08 8.08zm0-15.17a7.08 7.08 0 1 0 7.08 7.08 7.09 7.09 0 0 0-7.08-7.08zM16.58 42.17a4.58 4.58 0 1 1 4.58-4.58 4.59 4.59 0 0 1-4.58 4.58zm0-8.17a3.58 3.58 0 1 0 3.58 3.58A3.59 3.59 0 0 0 16.58 34z" />
		<path d="M67.33 55h-35a.5.5 0 1 1 0-1h35a.5.5 0 0 1 0 1zM47.89 49.56a.5.5 0 0 1-.5-.5v-6.42a3.42 3.42 0 0 1 5.83-2.42.5.5 0 0 1-.71.71 2.42 2.42 0 0 0-4.13 1.71v6.42a.5.5 0 0 1-.49.5z" />
		<path d="M53.14 49.56h-7a.5.5 0 0 1 0-1h7a.5.5 0 1 1 0 1zM50.81 44.89h-4.09a.5.5 0 0 1 0-1h4.08a.5.5 0 0 1 0 1z" />
	</g>
</svg>
