<svg viewBox="0 0 80 80" version="1.1" xmlns="http://www.w3.org/2000/svg">
	<g id="Custom-Preset" stroke="none" stroke-width="1" fill="none" fill-rule="evenodd">
		<g id="Calc_Target_Icon_exp" transform="translate(17.000000, 17.000000)" fill-rule="nonzero">
			<path d="M8,36 C4.024,36 0,35.1171429 0,33.4285714 C0,33.192 0.224,33 0.5,33 C0.776,33 1,33.192 1,33.4285714 C1,34.1271429 3.727,35.1428571 8,35.1428571 C12.273,35.1428571 15,34.1271429 15,33.4285714 C15,33.192 15.224,33 15.5,33 C15.776,33 16,33.192 16,33.4285714 C16,35.1171429 11.976,36 8,36" id="Fill-3" fill="#FCBC31">
			</path>
			<path d="M8,40 C4.024,40 0,39.1171429 0,37.4285714 C0,37.192 0.224,37 0.5,37 C0.776,37 1,37.192 1,37.4285714 C1,38.1271429 3.727,39.1428571 8,39.1428571 C12.273,39.1428571 15,38.1271429 15,37.4285714 C15,37.192 15.224,37 15.5,37 C15.776,37 16,37.192 16,37.4285714 C16,39.1171429 11.976,40 8,40" id="Fill-5" fill="#FCBC31">
			</path>
			<path d="M8,44 C4.024,44 0,43.1171429 0,41.4285714 C0,41.192 0.224,41 0.5,41 C0.776,41 1,41.192 1,41.4285714 C1,42.1271429 3.727,43.1428571 8,43.1428571 C12.273,43.1428571 15,42.1271429 15,41.4285714 C15,41.192 15.224,41 15.5,41 C15.776,41 16,41.192 16,41.4285714 C16,43.1171429 11.976,44 8,44" id="Fill-7" fill="#FCBC31">
			</path>
			<path d="M38,36 C34.024,36 30,35.1171429 30,33.4285714 C30,33.192 30.224,33 30.5,33 C30.776,33 31,33.192 31,33.4285714 C31,34.1271429 33.727,35.1428571 38,35.1428571 C42.273,35.1428571 45,34.1271429 45,33.4285714 C45,33.192 45.224,33 45.5,33 C45.776,33 46,33.192 46,33.4285714 C46,35.1171429 41.976,36 38,36" id="Fill-9" fill="#FCBC31">
			</path>
			<path d="M38,40 C34.024,40 30,39.1171429 30,37.4285714 C30,37.192 30.224,37 30.5,37 C30.776,37 31,37.192 31,37.4285714 C31,38.1271429 33.727,39.1428571 38,39.1428571 C42.273,39.1428571 45,38.1271429 45,37.4285714 C45,37.192 45.224,37 45.5,37 C45.776,37 46,37.192 46,37.4285714 C46,39.1171429 41.976,40 38,40" id="Fill-11" fill="#FCBC31">
			</path>
			<path d="M38,44 C34.024,44 30,43.1171429 30,41.4285714 C30,41.192 30.224,41 30.5,41 C30.776,41 31,41.192 31,41.4285714 C31,42.1271429 33.727,43.1428571 38,43.1428571 C42.273,43.1428571 45,42.1271429 45,41.4285714 C45,41.192 45.224,41 45.5,41 C45.776,41 46,41.192 46,41.4285714 C46,43.1171429 41.976,44 38,44" id="Fill-13" fill="#FCBC31">
			</path>
			<path d="M23,36 C19.024,36 15,35.1171429 15,33.4285714 C15,33.192 15.224,33 15.5,33 C15.776,33 16,33.192 16,33.4285714 C16,34.1271429 18.727,35.1428571 23,35.1428571 C27.273,35.1428571 30,34.1271429 30,33.4285714 C30,33.192 30.224,33 30.5,33 C30.776,33 31,33.192 31,33.4285714 C31,35.1171429 26.976,36 23,36" id="Fill-15" fill="#FCBC31">
			</path>
			<path d="M23,32 C19.024,32 15,31.1171429 15,29.4285714 C15,29.192 15.224,29 15.5,29 C15.776,29 16,29.192 16,29.4285714 C16,30.1271429 18.727,31.1428571 23,31.1428571 C27.273,31.1428571 30,30.1271429 30,29.4285714 C30,29.192 30.224,29 30.5,29 C30.776,29 31,29.192 31,29.4285714 C31,31.1171429 26.976,32 23,32" id="Fill-17" fill="#FCBC31">
			</path>
			<path d="M23,28 C19.024,28 15,27.1171429 15,25.4285714 C15,25.192 15.224,25 15.5,25 C15.776,25 16,25.192 16,25.4285714 C16,26.1271429 18.727,27.1428571 23,27.1428571 C27.273,27.1428571 30,26.1271429 30,25.4285714 C30,25.192 30.224,25 30.5,25 C30.776,25 31,25.192 31,25.4285714 C31,27.1171429 26.976,28 23,28" id="Fill-19" fill="#FCBC31">
			</path>
			<path d="M23,25 C19.024,25 15,24.1171429 15,22.4285714 C15,22.192 15.224,22 15.5,22 C15.776,22 16,22.192 16,22.4285714 C16,23.1271429 18.727,24.1428571 23,24.1428571 C27.273,24.1428571 30,23.1271429 30,22.4285714 C30,22.192 30.224,22 30.5,22 C30.776,22 31,22.192 31,22.4285714 C31,24.1171429 26.976,25 23,25" id="Fill-21" fill="#FCBC31">
			</path>
			<path d="M23,40 C19.024,40 15,39.1171429 15,37.4285714 C15,37.192 15.224,37 15.5,37 C15.776,37 16,37.192 16,37.4285714 C16,38.1271429 18.727,39.1428571 23,39.1428571 C27.273,39.1428571 30,38.1271429 30,37.4285714 C30,37.192 30.224,37 30.5,37 C30.776,37 31,37.192 31,37.4285714 C31,39.1171429 26.976,40 23,40" id="Fill-23" fill="#FCBC31">
			</path>
			<path d="M23,44 C19.024,44 15,43.1171429 15,41.4285714 C15,41.192 15.224,41 15.5,41 C15.776,41 16,41.192 16,41.4285714 C16,42.1271429 18.727,43.1428571 23,43.1428571 C27.273,43.1428571 30,42.1271429 30,41.4285714 C30,41.192 30.224,41 30.5,41 C30.776,41 31,41.192 31,41.4285714 C31,43.1171429 26.976,44 23,44" id="Fill-25" fill="#FCBC31">
			</path>
			<path d="M30.5,45 C30.224,45 30,44.8000343 30,44.5536481 L30,19.4463519 C30,19.1999657 30.224,19 30.5,19 C30.776,19 31,19.1999657 31,19.4463519 L31,44.5536481 C31,44.8000343 30.776,45 30.5,45" id="Fill-27" fill="#1E2630">
			</path>
			<path d="M8,28.8333333 C3.727,28.8333333 1,29.8208333 1,30.5 C1,31.1791667 3.727,32.1666667 8,32.1666667 C12.273,32.1666667 15,31.1791667 15,30.5 C15,29.8208333 12.273,28.8333333 8,28.8333333 M8,33 C4.024,33 0,32.1416667 0,30.5 C0,28.8583333 4.024,28 8,28 C11.976,28 16,28.8583333 16,30.5 C16,32.1416667 11.976,33 8,33" id="Fill-29" fill="#1E2630">
			</path>
			<path d="M8,47 C4.024,47 0,46.1171429 0,44.4285714 C0,44.192 0.224,44 0.5,44 C0.776,44 1,44.192 1,44.4285714 C1,45.1271429 3.727,46.1428571 8,46.1428571 C12.273,46.1428571 15,45.1271429 15,44.4285714 C15,44.192 15.224,44 15.5,44 C15.776,44 16,44.192 16,44.4285714 C16,46.1171429 11.976,47 8,47" id="Fill-31" fill="#1E2630">
			</path>
			<path d="M0.5,45 C0.224,45 0,44.7963636 0,44.5454545 L0,30.4545455 C0,30.2036364 0.224,30 0.5,30 C0.776,30 1,30.2036364 1,30.4545455 L1,44.5454545 C1,44.7963636 0.776,45 0.5,45" id="Fill-33" fill="#1E2630">
			</path>
			<path d="M38,28.8333333 C33.727,28.8333333 31,29.8208333 31,30.5 C31,31.1791667 33.727,32.1666667 38,32.1666667 C42.273,32.1666667 45,31.1791667 45,30.5 C45,29.8208333 42.273,28.8333333 38,28.8333333 M38,33 C34.024,33 30,32.1416667 30,30.5 C30,28.8583333 34.024,28 38,28 C41.976,28 46,28.8583333 46,30.5 C46,32.1416667 41.976,33 38,33" id="Fill-35" fill="#1E2630">
			</path>
			<path d="M38,47 C34.024,47 30,46.1171429 30,44.4285714 C30,44.192 30.224,44 30.5,44 C30.776,44 31,44.192 31,44.4285714 C31,45.1271429 33.727,46.1428571 38,46.1428571 C42.273,46.1428571 45,45.1271429 45,44.4285714 C45,44.192 45.224,44 45.5,44 C45.776,44 46,44.192 46,44.4285714 C46,46.1171429 41.976,47 38,47" id="Fill-37" fill="#1E2630">
			</path>
			<path d="M45.5,45 C45.224,45 45,44.7963636 45,44.5454545 L45,30.4545455 C45,30.2036364 45.224,30 45.5,30 C45.776,30 46,30.2036364 46,30.4545455 L46,44.5454545 C46,44.7963636 45.776,45 45.5,45" id="Fill-39" fill="#1E2630">
			</path>
			<path d="M23,17.8333333 C18.727,17.8333333 16,18.8208333 16,19.5 C16,20.1791667 18.727,21.1666667 23,21.1666667 C27.273,21.1666667 30,20.1791667 30,19.5 C30,18.8208333 27.273,17.8333333 23,17.8333333 M23,22 C19.024,22 15,21.1416667 15,19.5 C15,17.8583333 19.024,17 23,17 C26.976,17 31,17.8583333 31,19.5 C31,21.1416667 26.976,22 23,22" id="Fill-41" fill="#1E2630">
			</path>
			<path d="M23,47 C19.024,47 15,46.1171429 15,44.4285714 C15,44.192 15.224,44 15.5,44 C15.776,44 16,44.192 16,44.4285714 C16,45.1271429 18.727,46.1428571 23,46.1428571 C27.273,46.1428571 30,45.1271429 30,44.4285714 C30,44.192 30.224,44 30.5,44 C30.776,44 31,44.192 31,44.4285714 C31,46.1171429 26.976,47 23,47" id="Fill-43" fill="#1E2630">
			</path>
			<path d="M15.5,45 C15.224,45 15,44.8000343 15,44.5536481 L15,19.4463519 C15,19.1999657 15.224,19 15.5,19 C15.776,19 16,19.1999657 16,19.4463519 L16,44.5536481 C16,44.8000343 15.776,45 15.5,45" id="Fill-45" fill="#1E2630">
			</path>
			<path d="M7.5,24 C7.224,24 7,23.7932308 7,23.5384615 L7,12.4615385 C7,12.2067692 7.224,12 7.5,12 C7.776,12 8,12.2067692 8,12.4615385 L8,23.5384615 C8,23.7932308 7.776,24 7.5,24" id="Fill-47" fill="#1E2630">
			</path>
			<path d="M10.566105,13.9997793 C10.4550833,13.9997793 10.3440617,13.9565145 10.2590608,13.8708681 L7.5,11.0604271 L4.74007187,13.8708681 C4.57093736,14.043044 4.29598538,14.043044 4.12685088,13.8708681 C3.95771637,13.6978092 3.95771637,13.4187959 4.12685088,13.245737 L7.19295583,10.1244964 C7.35601883,9.95850119 7.64398117,9.95850119 7.80617682,10.1244964 L10.8731491,13.245737 C11.0422836,13.4187959 11.0422836,13.6978092 10.8731491,13.8708681 C10.7881482,13.9565145 10.6771266,13.9997793 10.566105,13.9997793" id="Fill-49" fill="#1E2630">
			</path>
			<path d="M22.5,14 C22.224,14 22,13.7932308 22,13.5384615 L22,2.46153846 C22,2.20676923 22.224,2 22.5,2 C22.776,2 23,2.20676923 23,2.46153846 L23,13.5384615 C23,13.7932308 22.776,14 22.5,14" id="Fill-51" fill="#1E2630">
			</path>
			<path d="M25.566105,3.99977926 C25.4550833,3.99977926 25.3440617,3.95651454 25.2590608,3.87086805 L22.5,1.06042713 L19.7400719,3.87086805 C19.5709374,4.04304398 19.2959854,4.04304398 19.1268509,3.87086805 C18.9577164,3.69780917 18.9577164,3.41879587 19.1268509,3.24573699 L22.1929558,0.124496441 C22.3560188,-0.0414988135 22.6439812,-0.0414988135 22.8061768,0.124496441 L25.8731491,3.24573699 C26.0422836,3.41879587 26.0422836,3.69780917 25.8731491,3.87086805 C25.7881482,3.95651454 25.6771266,3.99977926 25.566105,3.99977926" id="Fill-53" fill="#1E2630">
			</path>
			<path d="M38.5,24 C38.224,24 38,23.7932308 38,23.5384615 L38,12.4615385 C38,12.2067692 38.224,12 38.5,12 C38.776,12 39,12.2067692 39,12.4615385 L39,23.5384615 C39,23.7932308 38.776,24 38.5,24" id="Fill-55" fill="#1E2630">
			</path>
			<path d="M41.566105,13.9997793 C41.4550833,13.9997793 41.3440617,13.9565145 41.2590608,13.8708681 L38.5,11.0604271 L35.7400719,13.8708681 C35.5709374,14.043044 35.2959854,14.043044 35.1268509,13.8708681 C34.9577164,13.6978092 34.9577164,13.4187959 35.1268509,13.245737 L38.1929558,10.1244964 C38.3560188,9.95850119 38.6439812,9.95850119 38.8061768,10.1244964 L41.8731491,13.245737 C42.0422836,13.4187959 42.0422836,13.6978092 41.8731491,13.8708681 C41.7881482,13.9565145 41.6771266,13.9997793 41.566105,13.9997793" id="Fill-57" fill="#1E2630">
			</path>
		</g>
	</g>
</svg>
