<?xml version="1.0" encoding="UTF-8"?>
<svg width="48px" height="48px" viewBox="0 0 48 48" version="1.1" xmlns="http://www.w3.org/2000/svg" xmlns:xlink="http://www.w3.org/1999/xlink">
    <title>Icons/Pictogram/Tooth</title>
    <g id="Icons/Pictogram/Tooth" stroke="none" stroke-width="1" fill="none" fill-rule="evenodd">
        <path d="M32.3170732,5 C38.4061118,5 43.0487805,9.75899314 43.0487805,16 C43.0487805,23.220089 35.1702871,44 32.3170732,44 C31.5495107,44 30.7344122,41.76577 29.6201966,36.3707757 C29.5927306,36.2377865 29.4414632,35.5034782 29.3978646,35.2926451 C28.7071226,31.9523695 28.2691155,30.1835105 27.6593098,28.6013268 C26.7733322,26.3025961 25.6492207,25 24.0243902,25 C22.3995598,25 21.2754483,26.3025961 20.3894707,28.6013268 C19.779665,30.1835105 19.3416579,31.9523695 18.6509159,35.2926451 C18.6073173,35.5034782 18.4560498,36.2377865 18.4285839,36.3707757 C17.3143683,41.76577 16.4992698,44 15.7317073,44 C12.8784934,44 5,23.220089 5,16 C5,9.7593302 9.64324898,5 15.7317073,5 C16.9485545,5 17.9986025,5.2621716 19.9589968,5.95201887 C22.1385945,6.7190021 22.8427951,6.92379594 23.9614554,6.99791718 C25.2445159,7.08293139 26.0756018,6.84880293 28.4641539,5.94247947 C30.2685193,5.25782258 31.2228672,5 32.3170732,5 Z" id="tooth-fill" fill="#FFFFFF"></path>
        <path d="M32.2926829,5 C31.198477,5 30.2441291,5.25782258 28.4397637,5.94247947 C26.0512116,6.84880293 25.2201256,7.08293139 23.9370652,6.99791718 C22.8184048,6.92379594 22.1142043,6.7190021 19.9346065,5.95201887 C17.9742122,5.2621716 16.9241642,5 15.7073171,5 C9.61885874,5 4.97560976,9.7593302 4.97560976,16 C4.97560976,23.220089 12.8541032,44 15.7073171,44 C16.4748795,44 17.2899781,41.76577 18.4041937,36.3707757 C18.4316596,36.2377865 18.582927,35.5034782 18.6265256,35.2926451 C19.3172676,31.9523695 19.7552748,30.1835105 20.3650805,28.6013268 C21.251058,26.3025961 22.3751695,25 24,25 C25.6248305,25 26.748942,26.3025961 27.6349195,28.6013268 C28.2447252,30.1835105 28.6827324,31.9523695 29.3734744,35.2926451 C29.417073,35.5034782 29.5683404,36.2377865 29.5958063,36.3707757 C30.7100219,41.76577 31.5251205,44 32.2926829,44 C35.1458968,44 43.0243902,23.220089 43.0243902,16 C43.0243902,9.75899314 38.3817215,5 32.2926829,5 Z M32.2926829,4 C38.9208647,4 44,9.20704545 44,16 C44,22.7929545 36.2926829,45 32.2926829,45 C28.2926829,45 28.7272727,26 24,26 C19.2727273,26 19.7073171,45 15.7073171,45 C11.7073171,45 4,22.7929545 4,16 C4,9.20704545 9.08004435,4 15.7073171,4 C18.7854989,4 21.4545455,5.83134091 24,6 C26.5454545,6.16865909 29.2154102,4 32.2926829,4 Z" id="tooth-stroke" fill="#1E2630" fill-rule="nonzero"></path>
        <path d="M10,18.5 C10,18.7761424 9.77614237,19 9.5,19 C9.22385763,19 9,18.7761424 9,18.5 C9,13.253576 13.253407,9 18.5,9 C18.7761424,9 19,9.22385763 19,9.5 C19,9.77614237 18.7761424,10 18.5,10 C13.8057006,10 10,13.8058518 10,18.5 Z" id="tooth-shine" fill="#FEBD11" fill-rule="nonzero"></path>
    </g>
</svg>