<svg xmlns="http://www.w3.org/2000/svg" viewBox="0 0 80 80">
	<g data-name="Artwork - expanded">
		<path d="M56.8 55c-.3 0-.5-.2-.5-.5 0-.2.1-.3.2-.4 4.9-3.7 5.9-10.7 2.2-15.6S48 32.6 43.1 36.3 37.2 47 40.9 51.9c.5.7 1.2 1.4 1.9 2 .2.2.2.5.1.7-.2.2-.5.2-.7.1-5.2-4.2-6-11.9-1.8-17.1s11.9-6 17.1-1.8 6 11.9 1.8 17.1c-.6.8-1.3 1.4-2.1 2-.1.1-.2.1-.4.1zM30.6 38.7c-4.5 0-8.1-3.6-8.1-8.1s3.6-8.1 8.1-8.1 8.1 3.6 8.1 8.1-3.7 8.1-8.1 8.1zm0-15.2c-3.9 0-7.1 3.2-7.1 7.1s3.2 7.1 7.1 7.1 7.1-3.2 7.1-7.1c0-3.9-3.2-7.1-7.1-7.1zm-14 18.7c-2.5 0-4.6-2.1-4.6-4.6 0-2.5 2.1-4.6 4.6-4.6s4.6 2.1 4.6 4.6c0 2.5-2.1 4.6-4.6 4.6zm0-8.2c-2 0-3.6 1.6-3.6 3.6s1.6 3.6 3.6 3.6 3.6-1.6 3.6-3.6-1.6-3.6-3.6-3.6z" fill="#1e2630"/>
		<path d="M67.3 55h-35c-.3 0-.5-.2-.5-.5s.2-.5.5-.5h35c.3 0 .5.2.5.5s-.2.5-.5.5z" fill="#1e2630"/>
		<path d="M47.9 49.6c-.3 0-.5-.2-.5-.5v-6.4c0-1.9 1.5-3.4 3.4-3.4.9 0 1.8.4 2.4 1 .2.2.2.5 0 .7s-.5.2-.7 0c-.9-.9-2.5-.9-3.4 0-.5.5-.7 1.1-.7 1.7v6.4c0 .2-.2.5-.5.5z" fill="#febd11"/>
		<path d="M53.1 49.6h-7c-.3 0-.5-.2-.5-.5s.2-.5.5-.5h7c.3 0 .5.2.5.5s-.2.5-.5.5zm-2.3-4.7h-4.1c-.3 0-.5-.2-.5-.5s.2-.5.5-.5h4.1c.3 0 .5.2.5.5s-.2.5-.5.5z" fill="#febd11"/>
	</g>
</svg>
