<svg xmlns="http://www.w3.org/2000/svg" width="42" height="42">
  <g fill="#40474f" data-name="Artwork - expanded">
    <path d="M25.5 32h-14a.5.5 0 0 1 0-1h14a.5.5 0 0 1 0 1zM11.5 28a.5.5 0 0 1-.49-.6l.86-4.29a.49.49 0 0 1 .14-.26l13.71-13.7a.5.5 0 0 1 .35-.15.5.5 0 0 1 .35.15l3.43 3.43a.5.5 0 0 1 0 .71L16.14 27a.49.49 0 0 1-.26.14L11.6 28zm1.32-4.54l-.68 3.4 3.4-.68 13.25-13.25-2.72-2.72zm3 3.18z"/>
    <path d="M15.75 26.71a.5.5 0 0 1-.35-.15l-3-3a.5.5 0 0 1 .71-.71l3 3a.5.5 0 0 1-.35.85z"/>
  </g>
</svg>
