<?xml version="1.0" encoding="UTF-8"?>
<svg  viewBox="0 0 48 48" version="1.1" xmlns="http://www.w3.org/2000/svg" xmlns:xlink="http://www.w3.org/1999/xlink">
    <g id="🟢-1.-Product-Page" stroke="none" stroke-width="1" fill="none" fill-rule="evenodd">
        <g id="1_ISA-Product-Page_1366" transform="translate(-409.000000, -5032.000000)">
            <g id="Open-ISA_Primary" transform="translate(0.000000, 4760.000000)">
                <g id="Btn" transform="translate(197.000000, 240.000000)">
                    <g id="Icon" transform="translate(212.000000, 32.000000)">
                        <path d="M37.5383301,7.5 L39.6081081,7.5 C40.6529711,7.5 41.5,8.3954305 41.5,9.5 L41.5,44.5 C41.5,45.6045695 40.6529711,46.5 39.6081081,46.5 L8.39189189,46.5 C7.34702885,46.5 6.5,45.6045695 6.5,44.5 L6.5,9.5 C6.5,8.3954305 7.34702885,7.5 8.39189189,7.5 L10.5558356,7.5" id="Path" stroke="#1E2630" stroke-linecap="round"></path>
                        <path d="M14.5,11.5 C13.9477153,11.5 13.5,11.0522847 13.5,10.5 L13.5,6.5 C13.5,5.94771525 13.9477153,5.5 14.5,5.5 L18.5223861,5.50039328 C18.7748155,2.69695546 21.1308446,0.5 24,0.5 C26.8691554,0.5 29.2251845,2.69695546 29.4776139,5.50039328 L33.5,5.5 C34.0522847,5.5 34.5,5.94771525 34.5,6.5 L34.5,10.5 C34.5,11.0522847 34.0522847,11.5 33.5,11.5 L14.5,11.5 Z" id="Path" stroke="#1E2630" stroke-linejoin="round"></path>
                        <line x1="13.5" y1="20.5" x2="34.5" y2="20.5" id="Line" stroke="#FEBD11" stroke-linecap="round"></line>
                        <line x1="13.5" y1="25.5" x2="34.5" y2="25.5" id="Line-Copy" stroke="#FEBD11" stroke-linecap="round"></line>
                        <line x1="13.5" y1="30.5" x2="34.5" y2="30.5" id="Line-Copy" stroke="#FEBD11" stroke-linecap="round"></line>
                        <line x1="13.5" y1="35.5" x2="23.5" y2="35.5" id="Line-Copy" stroke="#FEBD11" stroke-linecap="round"></line>
                    </g>
                </g>
            </g>
        </g>
    </g>
</svg>
