<svg xmlns="http://www.w3.org/2000/svg" width="80px" height="80px" viewBox="0 0 80 80">
  <g fill="#1E2630" transform="translate(16 18)">
    <path d="M29.1213194,43.4988195 C28.8488486,43.4988195 28.6279674,43.2749618 28.6279674,42.9988195 L28.6279674,28.4988195 L19.3924173,28.4988195 L19.3924173,42.9788195 C19.3924173,43.2549618 19.1715361,43.4788195 18.8990653,43.4788195 C18.6265945,43.4788195 18.4057133,43.2549618 18.4057133,42.9788195 L18.4057133,27.9788195 C18.4057133,27.7026771 18.6265945,27.4788195 18.8990653,27.4788195 L29.1213194,27.4788195 C29.3937902,27.4788195 29.6146715,27.7026771 29.6146715,27.9788195 L29.6146715,42.9788195 C29.620045,43.1148579 29.570449,43.2472344 29.4773387,43.345374 C29.3842285,43.4435135 29.2556565,43.4989284 29.1213194,43.4988195 Z M0.497034448,22.7588195 C0.292536548,22.760358 0.108302071,22.6338724 0.0338636727,22.4408311 C-0.0405747255,22.2477897 0.0102168145,22.0282172 0.161555065,21.8888195 L23.68458,0.128819451 C23.8723592,-0.042939817 24.1578925,-0.042939817 24.3456717,0.128819451 L47.8588297,21.8888195 C48.0417003,22.0777438 48.0476356,22.3783665 47.8723685,22.5745536 C47.6971014,22.7707407 47.4013464,22.7945306 47.1977379,22.6288195 L24.0101924,1.17881945 L0.832513831,22.6288195 C0.74077612,22.7133329 0.621005509,22.7597446 0.497034448,22.7588195 Z M42.4319573,43.9988195 L5.60816151,43.9988195 C5.33569071,43.9988195 5.11480948,43.7749618 5.11480948,43.4988195 L5.11480948,17.6788195 C5.06663956,17.5039974 5.11573579,17.3164488 5.24308101,17.1888195 L23.68458,0.128819451 C23.8723592,-0.042939817 24.1578925,-0.042939817 24.3456717,0.128819451 L42.7773037,17.1888195 C42.9279988,17.3277326 42.9789568,17.5462291 42.9055752,17.7388195 L42.9055752,43.4988195 C42.9057873,43.7673362 42.6966919,43.9880789 42.4319573,43.9988195 Z M6.12124763,42.9988195 L41.9386053,42.9988195 L41.9386053,17.7488195 L24.0101924,1.17881945 L6.10151355,17.7488195 L6.12124763,42.9988195 Z"/>
    <path d="M24.16,23.32 C21.3102107,23.32 19,21.0097893 19,18.16 C19,15.3102107 21.3102107,13 24.16,13 C27.0097893,13 29.32,15.3102107 29.32,18.16 C29.3144976,21.007507 27.007507,23.3144976 24.16,23.32 Z M24.16,13.99 C21.8624954,13.99 20,15.8524954 20,18.15 C20,20.4475046 21.8624954,22.31 24.16,22.31 C26.4575046,22.31 28.32,20.4475046 28.32,18.15 C28.3145024,15.8547765 26.4552235,13.9954976 24.16,13.99 Z"/>
  </g>
</svg>
