<svg width="32" height="32" xmlns="http://www.w3.org/2000/svg">
  <g fill="none" fill-rule="evenodd">
    <path d="M8.322 2.238c3.395-1.57 6.29-1.097 8.687 1.416h0c2.157-2.513 4.932-2.985 8.327-1.416 3.394 1.57 3.897 5.798 1.51 12.687.558 3.798.558 6.652 0 8.561-.557 1.91-1.475 3.807-2.752 5.694-1.149 1.63-2.108 1.63-2.878 0-1.142-2.416-1.827-9.749-4.386-9.916-2.56.167-3.246 7.5-4.388 9.916-.77 1.63-1.73 1.63-2.878 0-1.277-1.887-2.194-3.785-2.752-5.694-.557-1.91-.557-4.763 0-8.561C4.425 8.036 4.928 3.807 8.322 2.238z" stroke="#1E2630"/>
    <path d="M12.83 3.644c-3.135-.01-4.913 1.324-5.333 4" stroke="#FEBD11" stroke-linecap="round" stroke-linejoin="round"/>
  </g>
</svg>