<svg xmlns="http://www.w3.org/2000/svg" width="25" height="25" viewBox="0 0 32 32">
  <path fill="none" stroke="#FFF" d="M28.6074365,29.3384 C28.6074365,29.3384 30.6651186,27.2814874 30.6683388,27.2847013 C31.135262,26.8026124 31.0901797,26.082693 30.652238,25.6520269 C30.652238,25.6520269 24.9750962,19.9826616 24.9750962,19.9858755 C24.5210537,19.5262841 23.802958,19.5359258 23.3489155,19.9826616 L21.2944535,22.0395742 L20.7438062,22.611653 C19.7230155,23.6208257 18.4124105,22.7177125 15.8942455,20.6800835 C14.2294229,19.314165 12.3134278,17.488655 10.6486051,15.4445981 C9.48934761,13.9951175 8.4556763,12.4813584 9.52154921,11.414335 L10.0850772,10.8518979 C10.0850772,10.8518979 12.1491996,8.80141316 12.1427593,8.79498531 C12.619343,8.3225382 12.5742607,7.60261878 12.1427593,7.17516663 L6.29494906,1.3386771 C5.84412668,0.882299612 5.12281088,0.89194139 4.66876835,1.3386771 L2.61430638,3.39558971 L2.03467761,3.96766853 C0.955924064,5.32394528 -1.45597565,11.7871504 8.89039788,22.3770364 C19.7874187,33.5229316 26.8202478,31.1381985 28.0310279,29.8879813 L28.6074365,29.3384 Z"/>
</svg>
