<?xml version="1.0" encoding="UTF-8"?>
<svg width="24px" height="24px" viewBox="0 0 24 24" version="1.1" xmlns="http://www.w3.org/2000/svg" xmlns:xlink="http://www.w3.org/1999/xlink">
    <title>99E42A6C-F3CC-4077-BCAD-031AFAEB935C</title>
    <g id="🟢-1.-Product-Page" stroke="none" stroke-width="1" fill="none" fill-rule="evenodd">
        <g id="1_ISA-Product-Page_1366" transform="translate(-911.000000, -1392.000000)">
            <g id="In-Page-Menu" transform="translate(0.000000, 1368.000000)">
                <g id="Tab" transform="translate(904.000000, 24.000000)">
                    <g id="Group-9">
                        <g id="Icon" transform="translate(7.000000, 0.000000)">
                            <path d="M12.0546875,14.4375 L12.0546875,14.1796875 C12.0546875,13.6848958 12.1393229,13.2890625 12.3085938,12.9921875 C12.4778646,12.6953125 12.8255208,12.3229167 13.3515625,11.875 C14.0078125,11.3020833 14.4348958,10.8867188 14.6328125,10.6289062 C14.8307292,10.3710938 14.9804688,10.0976562 15.0820312,9.80859375 C15.1835938,9.51953125 15.234375,9.18489583 15.234375,8.8046875 C15.234375,7.9140625 14.9583333,7.22395833 14.40625,6.734375 C13.8541667,6.24479167 13.0807292,6 12.0859375,6 C11.0130208,6 9.984375,6.2578125 9,6.7734375 L9,6.7734375 L9.4609375,7.828125 C9.96614583,7.57291667 10.4140625,7.39713542 10.8046875,7.30078125 C11.1953125,7.20442708 11.5963542,7.15625 12.0078125,7.15625 C12.6484375,7.15625 13.1393229,7.30078125 13.4804688,7.58984375 C13.8216146,7.87890625 13.9921875,8.2890625 13.9921875,8.8203125 C13.9921875,9.24739583 13.8997396,9.61197917 13.7148438,9.9140625 C13.5299479,10.2161458 13.0833333,10.6666667 12.375,11.265625 C11.8645833,11.703125 11.515625,12.1184896 11.328125,12.5117188 C11.140625,12.9049479 11.046875,13.40625 11.046875,14.015625 L11.046875,14.015625 L11.046875,14.4375 L12.0546875,14.4375 Z M11.6015625,17.8125 C11.8984375,17.8125 12.1302083,17.7200521 12.296875,17.5351562 C12.4635417,17.3502604 12.546875,17.0911458 12.546875,16.7578125 C12.546875,16.4140625 12.4648438,16.1510417 12.3007812,15.96875 C12.1367188,15.7864583 11.9036458,15.6953125 11.6015625,15.6953125 C10.9765625,15.6953125 10.6640625,16.0494792 10.6640625,16.7578125 C10.6640625,17.1328125 10.7526042,17.4023438 10.9296875,17.5664062 C11.1067708,17.7304688 11.3307292,17.8125 11.6015625,17.8125 Z" id="?" fill="#FEBD11" fill-rule="nonzero"></path>
                            <rect id="Rectangle" stroke="#1E2630" x="0.5" y="0.5" width="23" height="23" rx="11.5"></rect>
                        </g>
                    </g>
                </g>
            </g>
        </g>
    </g>
</svg>