<svg width="47px" height="48px" viewBox="0 0 47 48" version="1.1" xmlns="http://www.w3.org/2000/svg"
    xmlns:xlink="http://www.w3.org/1999/xlink">
    <g id="🎨-UI-Design" stroke="none" stroke-width="1" fill="none" fill-rule="evenodd">
        <g id="NC_Profession-Selector_1366" transform="translate(-660.000000, -444.000000)">
            <g id="Profession-cards" transform="translate(197.000000, 372.000000)">
                <g id="Btn" transform="translate(366.000000, 48.000000)">
                    <g id="Group-2" transform="translate(97.000000, 24.000000)">
                        <g id="Group-3" transform="translate(0.000000, 4.000000)" fill-rule="nonzero">
                            <path
                                d="M4.89124698,0 L4.89124698,8.97669242 C4.89124698,15.090482 9.8658215,20.0648259 15.9793805,20.0648259 C22.0934439,20.0648259 27.067514,15.0907558 27.067514,8.97669242 L27.067514,0 L31.958761,0 L31.958761,8.97669242 C31.958761,16.8632297 26.1788355,23.5256912 18.4864857,24.7435236 L18.4864857,29.0882133 C18.4864857,34.2901684 22.7188841,38.5225668 27.9208392,38.5225668 C33.1229546,38.5225668 37.355971,34.2900082 37.355971,29.0882133 L37.355971,26.3709808 L42.247218,26.3709808 L42.247218,29.0882133 C42.247218,36.9879473 35.8208521,43.4138138 27.9208392,43.4138138 C20.0209658,43.4138138 13.5952387,36.9880868 13.5952387,29.0882133 L13.5952387,24.7664852 C5.84710913,23.6022316 0,16.9104999 0,8.97669242 L0,0 L4.89124698,0 Z"
                                id="Fill-1" fill="#FFFFFF"></path>
                            <path
                                d="M18.4864857,24.7435236 L18.4864857,29.0882133 C18.4864857,34.2901684 22.7188841,38.5225668 27.9208392,38.5225668 C33.1229546,38.5225668 37.355971,34.2900082 37.355971,29.0882133 L37.355971,26.3709808 L42.247218,26.3709808 L42.247218,29.0882133 C42.247218,36.9879473 35.8208521,43.4138138 27.9208392,43.4138138 C20.0209658,43.4138138 13.5952387,36.9880868 13.5952387,29.0882133 L13.5952387,24.7664852 C5.84710913,23.6022316 0,16.9104999 0,8.97669242 L0,0 L4.89124698,0 L4.89124698,8.97669242 C4.89124698,15.090482 9.8658215,20.0648259 15.9793805,20.0648259 C22.0934439,20.0648259 27.067514,15.0907558 27.067514,8.97669242 L27.067514,0 L31.958761,0 L31.958761,8.97669242 C31.958761,16.8632297 26.1788355,23.5256912 18.4864857,24.7435236 Z M38.355971,29.0882133 C38.355971,34.8423172 33.6752151,39.5225668 27.9208392,39.5225668 C22.1665993,39.5225668 17.4864857,34.8424532 17.4864857,29.0882133 L17.4864857,23.8714835 L17.9218596,23.8147344 C25.3344303,22.8485384 30.958761,16.5068913 30.958761,8.97669242 L30.958761,1 L28.067514,1 L28.067514,8.97669242 C28.067514,15.6430406 22.6457286,21.0648259 15.9793805,21.0648259 C9.31354713,21.0648259 3.89124698,15.6427772 3.89124698,8.97669242 L3.89124698,1 L1,1 L1,8.97669242 C1,16.5524529 6.69022905,22.9220378 14.1558448,23.8336832 L14.5952387,23.8873387 L14.5952387,29.0882133 C14.5952387,36.435802 20.5732505,42.4138138 27.9208392,42.4138138 C35.2685847,42.4138138 41.247218,36.4356452 41.247218,29.0882133 L41.247218,27.3709808 L38.355971,27.3709808 L38.355971,29.0882133 Z"
                                id="Fill-1" fill="#1E2630"></path>
                        </g>
                        <g id="Group" transform="translate(33.000000, 26.000000)" fill="#FFFFFF" stroke="#FEBD11">
                            <circle id="Oval-5-Copy" cx="6.5" cy="6.5" r="6.5"></circle>
                            <circle id="Oval-5-Copy" cx="6.5" cy="6.5" r="2.95454545"></circle>
                        </g>
                        <g id="Oval" fill-rule="nonzero">
                            <path
                                d="M5,0 C7.76142375,0 10,2.23857625 10,5 C10,7.76142375 7.76142375,10 5,10 C2.23857625,10 0,7.76142375 0,5 C0,2.23857625 2.23857625,0 5,0 Z"
                                id="Oval-5" fill="#FFFFFF"></path>
                            <path
                                d="M5,10 C2.23857625,10 0,7.76142375 0,5 C0,2.23857625 2.23857625,0 5,0 C7.76142375,0 10,2.23857625 10,5 C10,7.76142375 7.76142375,10 5,10 Z M5,9 C7.209139,9 9,7.209139 9,5 C9,2.790861 7.209139,1 5,1 C2.790861,1 1,2.790861 1,5 C1,7.209139 2.790861,9 5,9 Z"
                                id="Oval-5" fill="#1E2630"></path>
                        </g>
                        <g id="Oval" transform="translate(22.000000, 0.000000)" fill-rule="nonzero">
                            <path
                                d="M5,0 C7.76142375,0 10,2.23857625 10,5 C10,7.76142375 7.76142375,10 5,10 C2.23857625,10 0,7.76142375 0,5 C0,2.23857625 2.23857625,0 5,0 Z"
                                id="Oval-5" fill="#FFFFFF"></path>
                            <path
                                d="M5,10 C2.23857625,10 0,7.76142375 0,5 C0,2.23857625 2.23857625,0 5,0 C7.76142375,0 10,2.23857625 10,5 C10,7.76142375 7.76142375,10 5,10 Z M5,9 C7.209139,9 9,7.209139 9,5 C9,2.790861 7.209139,1 5,1 C2.790861,1 1,2.790861 1,5 C1,7.209139 2.790861,9 5,9 Z"
                                id="Oval-5" fill="#1E2630"></path>
                        </g>
                    </g>
                </g>
            </g>
        </g>
    </g>
</svg>
