<svg xmlns="http://www.w3.org/2000/svg" width="42" height="42">
  <g fill="#40474f" data-name="Artwork - expanded">
    <path d="M30.5 33h-19A2.5 2.5 0 0 1 9 30.5v-18a2.5 2.5 0 0 1 2.5-2.5h19a2.5 2.5 0 0 1 2.5 2.5v18a2.5 2.5 0 0 1-2.5 2.5zm-19-22a1.5 1.5 0 0 0-1.5 1.5v18a1.5 1.5 0 0 0 1.5 1.5h19a1.5 1.5 0 0 0 1.5-1.5v-18a1.5 1.5 0 0 0-1.5-1.5z"/>
    <path d="M9.5 18h23v1h-23zM16.5 14a.5.5 0 0 1-.5-.5v-5a.5.5 0 0 1 1 0v5a.5.5 0 0 1-.5.5zM25.5 14a.5.5 0 0 1-.5-.5v-5a.5.5 0 0 1 1 0v5a.5.5 0 0 1-.5.5z"/>
  </g>
</svg>
