<svg xmlns="http://www.w3.org/2000/svg" width="80" height="80" viewBox="0 0 80 80">
  <g fill="none" fill-rule="evenodd">
    <path fill="#1E2630" fill-rule="nonzero" d="M39,49.44 C32.372583,49.44 27,44.067417 27,37.44 C27,30.812583 32.372583,25.44 39,25.44 C45.627417,25.44 51,30.812583 51,37.44 L51,38.15 C51.0011116,38.2857795 50.9434467,38.4154048 50.8418547,38.5054957 C50.7402628,38.5955867 50.6046725,38.6373387 50.47,38.62 C50.1977265,38.6038728 49.9886128,38.3725129 50,38.1 L50,37.45 C49.9981101,32.5120251 46.7058825,28.1804304 41.9486212,26.8567745 C37.1913599,25.5331186 32.1350158,27.5418146 29.5829691,31.7691846 C27.0309223,35.9965546 27.6086506,41.4065181 30.9958451,44.9996384 C34.3830395,48.5927587 39.7495372,49.4884027 44.12,47.19 C44.359787,47.0823602 44.6419762,47.1787511 44.7658016,47.4105946 C44.8896271,47.642438 44.8128089,47.9305715 44.59,48.07 C42.8653898,48.9733666 40.9468793,49.4435561 39,49.44 Z"/>
    <path fill="#1E2630" fill-rule="nonzero" d="M45.63,53.5 L18,53.5 C16.6192881,53.5 15.5,52.3807119 15.5,51 L15.5,23.88 C15.5,22.4992881 16.6192881,21.38 18,21.38 L60,21.38 C61.3807119,21.38 62.5,22.4992881 62.5,23.88 L62.5,40 C62.5,40.2761424 62.2761424,40.5 62,40.5 C61.7238576,40.5 61.5,40.2761424 61.5,40 L61.5,23.88 C61.5,23.0515729 60.8284271,22.38 60,22.38 L18,22.38 C17.1715729,22.38 16.5,23.0515729 16.5,23.88 L16.5,51 C16.5,51.8284271 17.1715729,52.5 18,52.5 L45.63,52.5 C45.9061424,52.5 46.13,52.7238576 46.13,53 C46.13,53.2761424 45.9061424,53.5 45.63,53.5 Z"/>
    <path fill="#FEBD11" fill-rule="nonzero" d="M36.27,43.5 C35.9938576,43.5 35.77,43.2761424 35.77,43 L35.77,34.84 C35.7593496,33.1316543 36.7821286,31.5862472 38.3587691,30.9283999 C39.9354096,30.2705527 41.7532783,30.6307105 42.96,31.84 C43.1560611,32.0360611 43.1560611,32.3539389 42.96,32.55 C42.7639389,32.7460611 42.4460611,32.7460611 42.25,32.55 C41.3319399,31.6317884 39.9511293,31.3570812 38.7515355,31.8539932 C37.5519417,32.3509052 36.7698485,33.5215598 36.77,34.82 L36.77,43 C36.77,43.2761424 36.5461424,43.5 36.27,43.5 Z"/>
    <path fill="#1E2630" fill-rule="nonzero" d="M55,59 C48.9248678,59 44,54.0751322 44,48 C44,41.9248678 48.9248678,37 55,37 C61.0751322,37 66,41.9248678 66,48 C66,54.0751322 61.0751322,59 55,59 Z M55,38 C49.4771525,38 45,42.4771525 45,48 C45,53.5228475 49.4771525,58 55,58 C60.5228475,58 65,53.5228475 65,48 C65,42.4771525 60.5228475,38 55,38 Z"/>
    <path fill="#FEBD11" fill-rule="nonzero" d="M42.94 43.5L34 43.5C33.7238576 43.5 33.5 43.2761424 33.5 43 33.5 42.7238576 33.7238576 42.5 34 42.5L42.9 42.5C43.1761424 42.5 43.4 42.7238576 43.4 43 43.4 43.2761424 43.1761424 43.5 42.9 43.5L42.94 43.5zM40 37.56L34.78 37.56C34.5038576 37.56 34.28 37.3361424 34.28 37.06 34.28 36.7838576 34.5038576 36.56 34.78 36.56L40 36.56C40.2761424 36.56 40.5 36.7838576 40.5 37.06 40.5 37.3361424 40.2761424 37.56 40 37.56z"/>
    <path fill="#1E2630" fill-rule="nonzero" d="M57.5,45.75 L56.5,45.75 L56.5,43.75 C56.5,42.9215729 55.8284271,42.25 55,42.25 C54.1715729,42.25 53.5,42.9215729 53.5,43.75 L53.5,45.75 L52.5,45.75 L52.5,43.75 C52.5,42.3692881 53.6192881,41.25 55,41.25 C56.3807119,41.25 57.5,42.3692881 57.5,43.75 L57.5,45.75 Z"/>
    <path fill="#1E2630" fill-rule="nonzero" d="M57.5,53 L52.5,53 C51.6715729,53 51,52.3284271 51,51.5 L51,46.5 C51,45.6715729 51.6715729,45 52.5,45 L57.5,45 C58.3284271,45 59,45.6715729 59,46.5 L59,51.5 C59,52.3284271 58.3284271,53 57.5,53 Z M52.5,46 C52.2238576,46 52,46.2238576 52,46.5 L52,51.5 C52,51.7761424 52.2238576,52 52.5,52 L57.5,52 C57.7761424,52 58,51.7761424 58,51.5 L58,46.5 C58,46.2238576 57.7761424,46 57.5,46 L52.5,46 Z"/>
    <path fill="#1E2630" fill-rule="nonzero" d="M55,51 C53.8954305,51 53,50.1045695 53,49 C53,47.8954305 53.8954305,47 55,47 C56.1045695,47 57,47.8954305 57,49 C57,50.1045695 56.1045695,51 55,51 Z M55,48 C54.4477153,48 54,48.4477153 54,49 C54,49.5522847 54.4477153,50 55,50 C55.5522847,50 56,49.5522847 56,49 C56,48.4477153 55.5522847,48 55,48 Z"/>
  </g>
</svg>
