<?xml version="1.0" encoding="UTF-8"?>
<svg width="24px" height="24px" viewBox="0 0 24 24" version="1.1" xmlns="http://www.w3.org/2000/svg" xmlns:xlink="http://www.w3.org/1999/xlink">
    <g id="🟢-1.-Product-Page" stroke="none" stroke-width="1" fill="none" fill-rule="evenodd">
        <g id="1_ISA-Product-Page_1366" transform="translate(-182.000000, -1392.000000)">
            <g id="In-Page-Menu" transform="translate(0.000000, 1368.000000)">
                <g id="Tab" transform="translate(143.000000, 24.000000)">
                    <g id="Group-3">
                        <g id="Icon" transform="translate(39.000000, 0.000000)">
                            <path d="M12,0.5 C9.65278981,0.5 7.52778981,1.45139491 5.98959236,2.98959236 C4.45139491,4.52778981 3.5,6.65278981 3.5,9 C3.5,10.6408816 3.96481179,12.1732319 4.77025311,13.4723415 C5.6566284,14.9019909 6.95512435,16.0493558 8.49989333,16.7483491 L9,19.5 L15.5,19 L15.5012714,16.747822 C17.0456898,16.0487059 18.3438659,14.9013916 19.2300249,13.471893 C20.0352952,12.1728793 20.5,10.6406928 20.5,9 C20.5,6.65278981 19.5486051,4.52778981 18.0104076,2.98959236 C16.4722102,1.45139491 14.3472102,0.5 12,0.5 Z" id="Combined-Shape" stroke="#1E2630"></path>
                            <path d="M11.5,11 C11.7582818,10.362589 12,9.73005786 12,9 C12,5.96243388 9.53756612,3.5 6.5,3.5" id="Oval" stroke="#FEBD11" stroke-linecap="round" transform="translate(9.250000, 7.250000) scale(-1, 1) translate(-9.250000, -7.250000) "></path>
                            <path d="M8.5,19.5 L15.5,19.5 L15.5,22.5 C15.5,23.0522847 15.0522847,23.5 14.5,23.5 L9.5,23.5 C8.94771525,23.5 8.5,23.0522847 8.5,22.5 L8.5,19.5 L8.5,19.5 Z" id="Rectangle" stroke="#1E2630"></path>
                        </g>
                    </g>
                </g>
            </g>
        </g>
    </g>
</svg>
