<svg xmlns="http://www.w3.org/2000/svg" width="42" height="42">
  <title>
    icon-joint
  </title>
  <g fill="#40474f" data-name="Artwork - expanded">
    <path d="M19.25 24a5 5 0 0 1 5 5v1h-15v-1a5 5 0 0 1 5-5h5m0-1h-5a6 6 0 0 0-6 6v2h17v-2a6 6 0 0 0-6-6zM16.75 13a3.28 3.28 0 0 1 3 3.5 3.28 3.28 0 0 1-3 3.5 3.28 3.28 0 0 1-3-3.5 3.28 3.28 0 0 1 3-3.5m0-1a4.27 4.27 0 0 0-4 4.5 4.27 4.27 0 0 0 4 4.5 4.27 4.27 0 0 0 4-4.5 4.27 4.27 0 0 0-4-4.5zM27 23h-2.48a8.06 8.06 0 0 1 1 1H27a5 5 0 0 1 5 5v1h-4.75v1H33v-2a6 6 0 0 0-6-6zM25 12a3.8 3.8 0 0 0-2.94 1.48 6.77 6.77 0 0 1 .43 1.13A2.92 2.92 0 0 1 25 13a3.28 3.28 0 0 1 3 3.5 3.28 3.28 0 0 1-3 3.5 2.92 2.92 0 0 1-2.51-1.6 6.77 6.77 0 0 1-.43 1.13A3.8 3.8 0 0 0 25 21a4.27 4.27 0 0 0 4-4.5 4.27 4.27 0 0 0-4-4.5z"/>
  </g>
</svg>
