<svg width="44" height="46" xmlns="http://www.w3.org/2000/svg">
  <g fill-rule="nonzero" fill="none">
    <path d="M41.442 46H2.558A2.532 2.532 0 0 1 0 43.444V6.556A2.532 2.532 0 0 1 2.558 4H8.5c.307 0 .512.204.512.511 0 .307-.205.511-.512.511H2.558c-.818 0-1.535.716-1.535 1.534v36.888c0 .818.717 1.534 1.535 1.534h38.884c.818 0 1.535-.716 1.535-1.534V6.556c0-.818-.717-1.534-1.535-1.534H35.5c-.307 0-.512-.204-.512-.51 0-.308.205-.512.512-.512h5.942A2.532 2.532 0 0 1 44 6.556v36.888A2.532 2.532 0 0 1 41.442 46z" fill="#1E2630"/>
    <path d="M41.442 46H2.558A2.532 2.532 0 0 1 0 43.444V18h1.023v25.444c0 .818.717 1.534 1.535 1.534h38.884c.818 0 1.535-.716 1.535-1.534V18H44v25.444A2.532 2.532 0 0 1 41.442 46z" fill="#1E2630"/>
    <path d="M12.505 26h-5c-.3 0-.5-.2-.5-.5s.2-.5.5-.5h5c.3 0 .5.2.5.5s-.2.5-.5.5zM24.505 26h-5c-.3 0-.5-.2-.5-.5s.2-.5.5-.5h5c.3 0 .5.2.5.5s-.2.5-.5.5zM36.505 26h-5c-.3 0-.5-.2-.5-.5s.2-.5.5-.5h5c.3 0 .5.2.5.5s-.2.5-.5.5zM12.505 32h-5c-.3 0-.5-.2-.5-.5s.2-.5.5-.5h5c.3 0 .5.2.5.5s-.2.5-.5.5zM24.505 32h-5c-.3 0-.5-.2-.5-.5s.2-.5.5-.5h5c.3 0 .5.2.5.5s-.2.5-.5.5zM36.505 32h-5c-.3 0-.5-.2-.5-.5s.2-.5.5-.5h5c.3 0 .5.2.5.5s-.2.5-.5.5zM12.505 38h-5c-.3 0-.5-.2-.5-.5s.2-.5.5-.5h5c.3 0 .5.2.5.5s-.2.5-.5.5zM24.505 38h-5c-.3 0-.5-.2-.5-.5s.2-.5.5-.5h5c.3 0 .5.2.5.5s-.2.5-.5.5zM36.505 38h-5c-.3 0-.5-.2-.5-.5s.2-.5.5-.5h5c.3 0 .5.2.5.5s-.2.5-.5.5z" fill="#FEBD11"/>
    <path fill="#1E2630" d="M0 19v-1h44v1zM27.496 5H16.504C16.2 5 16 4.8 16 4.5s.201-.5.504-.5h10.992c.303 0 .504.2.504.5s-.302.5-.504.5zM12 8V.533c0-.32.2-.533.5-.533s.5.213.5.533V8h-1zM31 8V.533c0-.32.2-.533.5-.533s.5.213.5.533V8h-1zM12.5 15A3.51 3.51 0 0 1 9 11.5 3.51 3.51 0 0 1 12.5 8a3.51 3.51 0 0 1 3.5 3.5c0 1.925-1.488 3.5-3.5 3.5zm0-6.125c-1.488 0-2.625 1.137-2.625 2.625s1.137 2.625 2.625 2.625c1.487 0 2.625-1.137 2.625-2.625S13.987 8.875 12.5 8.875zM31.5 15a3.51 3.51 0 0 1-3.5-3.5A3.51 3.51 0 0 1 31.5 8a3.51 3.51 0 0 1 3.5 3.5c0 1.925-1.488 3.5-3.5 3.5zm0-6.125c-1.488 0-2.625 1.137-2.625 2.625s1.137 2.625 2.625 2.625c1.487 0 2.625-1.137 2.625-2.625S32.987 8.875 31.5 8.875z"/>
  </g>
</svg>