<svg xmlns="http://www.w3.org/2000/svg" width="80" height="80" viewBox="0 0 80 80">
  <g fill="none" fill-rule="evenodd">
    <path fill="#1E2630" fill-rule="nonzero" d="M63.5,62 L17.5,62 C16.6715729,62 16,61.3284271 16,60.5 L16,20.5 C16,19.6715729 16.6715729,19 17.5,19 L63.5,19 C64.3284271,19 65,19.6715729 65,20.5 L65,60.5 C65,61.3284271 64.3284271,62 63.5,62 Z M17.5,20 C17.2238576,20 17,20.2238576 17,20.5 L17,60.5 C17,60.7761424 17.2238576,61 17.5,61 L63.5,61 C63.7761424,61 64,60.7761424 64,60.5 L64,20.5 C64,20.2238576 63.7761424,20 63.5,20 L17.5,20 Z"/>
    <path fill="#1E2630" fill-rule="nonzero" d="M64.5 26L16.5 26C16.2238576 26 16 25.7761424 16 25.5 16 25.2238576 16.2238576 25 16.5 25L64.5 25C64.7761424 25 65 25.2238576 65 25.5 65 25.7761424 64.7761424 26 64.5 26zM20.5 23L19.5 23C19.2238576 23 19 22.7761424 19 22.5 19 22.2238576 19.2238576 22 19.5 22L20.5 22C20.7761424 22 21 22.2238576 21 22.5 21 22.7761424 20.7761424 23 20.5 23zM24.5 23L23.5 23C23.2238576 23 23 22.7761424 23 22.5 23 22.2238576 23.2238576 22 23.5 22L24.5 22C24.7761424 22 25 22.2238576 25 22.5 25 22.7761424 24.7761424 23 24.5 23zM28.5 23L27.5 23C27.2238576 23 27 22.7761424 27 22.5 27 22.2238576 27.2238576 22 27.5 22L28.5 22C28.7761424 22 29 22.2238576 29 22.5 29 22.7761424 28.7761424 23 28.5 23zM30.5 55C30.2238576 55 30 54.7761424 30 54.5L30 44.5C30 44.2238576 30.2238576 44 30.5 44 30.7761424 44 31 44.2238576 31 44.5L31 54.5C31 54.7761424 30.7761424 55 30.5 55zM30.5 41C30.2238576 41 30 40.7761424 30 40.5L30 31.5C30 31.2238576 30.2238576 31 30.5 31 30.7761424 31 31 31.2238576 31 31.5L31 40.5C31 40.7761424 30.7761424 41 30.5 41zM40.5 55C40.2238576 55 40 54.7761424 40 54.5L40 38.5C40 38.2238576 40.2238576 38 40.5 38 40.7761424 38 41 38.2238576 41 38.5L41 54.5C41 54.7761424 40.7761424 55 40.5 55zM40.5 35C40.2238576 35 40 34.7761424 40 34.5L40 31.5C40 31.2238576 40.2238576 31 40.5 31 40.7761424 31 41 31.2238576 41 31.5L41 34.5C41 34.7761424 40.7761424 35 40.5 35zM50.5 55C50.2238576 55 50 54.7761424 50 54.5L50 50.5C50 50.2238576 50.2238576 50 50.5 50 50.7761424 50 51 50.2238576 51 50.5L51 54.5C51 54.7761424 50.7761424 55 50.5 55zM50.5 47C50.2238576 47 50 46.7761424 50 46.5L50 31.5C50 31.2238576 50.2238576 31 50.5 31 50.7761424 31 51 31.2238576 51 31.5L51 46.5C51 46.7761424 50.7761424 47 50.5 47z"/>
    <path fill="#1E2630" fill-rule="nonzero" d="M30.5,45 C29.1192881,45 28,43.8807119 28,42.5 C28,41.1192881 29.1192881,40 30.5,40 C31.8807119,40 33,41.1192881 33,42.5 C33,43.8807119 31.8807119,45 30.5,45 Z M30.5,41 C29.6715729,41 29,41.6715729 29,42.5 C29,43.3284271 29.6715729,44 30.5,44 C31.3284271,44 32,43.3284271 32,42.5 C32,41.6715729 31.3284271,41 30.5,41 Z M40.5,39 C39.1192881,39 38,37.8807119 38,36.5 C38,35.1192881 39.1192881,34 40.5,34 C41.8807119,34 43,35.1192881 43,36.5 C43,37.8807119 41.8807119,39 40.5,39 Z M40.5,35 C39.6715729,35 39,35.6715729 39,36.5 C39,37.3284271 39.6715729,38 40.5,38 C41.3284271,38 42,37.3284271 42,36.5 C42,35.6715729 41.3284271,35 40.5,35 Z M50.5,51 C49.1192881,51 48,49.8807119 48,48.5 C48,47.1192881 49.1192881,46 50.5,46 C51.8807119,46 53,47.1192881 53,48.5 C53,49.8807119 51.8807119,51 50.5,51 Z M50.5,47 C49.6715729,47 49,47.6715729 49,48.5 C49,49.3284271 49.6715729,50 50.5,50 C51.3284271,50 52,49.3284271 52,48.5 C52,47.6715729 51.3284271,47 50.5,47 Z"/>
  </g>
</svg>
