<svg width="32" height="32" xmlns="http://www.w3.org/2000/svg">
  <g fill="none" fill-rule="evenodd" stroke-linejoin="round">
    <path stroke="#1E2630" d="M1.333 12h29.333v13.333H1.333z"/>
    <path d="M4 5.44c5.473.624 9.473 3.116 12 7.478h0v13.855c-1.875-1.838-3.51-3.124-4.904-3.86-1.395-.734-3.74-1.546-7.035-2.433h0zm24.058 0l-.06 15.04c-3.296.887-5.64 1.699-7.035 2.434-1.395.735-3.03 2.021-4.905 3.859V12.918c2.528-4.362 6.528-6.854 12-7.479z" stroke="#1E2630" fill="#FFF"/>
    <path stroke="#FEBD11" stroke-linecap="round" d="M6.667 12H12M6.667 14.667H12M6.667 17.333H12M20 12h5.333M20 14.667h5.333M20 17.333h5.333"/>
  </g>
</svg>