<svg width="32px" height="32px" viewBox="0 0 32 32" version="1.1" xmlns="http://www.w3.org/2000/svg" xmlns:xlink="http://www.w3.org/1999/xlink">
    <g id="🟢-6.-Declaration" stroke="none" stroke-width="1" fill="none" fill-rule="evenodd">
        <g id="6_Declaration_1366" transform="translate(-329.000000, -1687.000000)">
            <g id="Declaration" transform="translate(297.000000, 1591.000000)">
                <g id="Notice" transform="translate(0.000000, 56.000000)">
                    <g id="Icon" transform="translate(32.000000, 40.000000)">
                        <g id="Iconography/32/Important">
                            <circle id="Oval" stroke="#FEBD11" stroke-width="2" cx="16" cy="16" r="15"></circle>
                            <path d="M17.4819336,18 L15.456543,18 L15.0332031,10 L17.9052734,10 L17.4819336,18 Z M15,21.5 C15,21.0058799 15.1285701,20.6323542 15.3857143,20.3794118 C15.6428584,20.1264693 16.0171404,20 16.5085714,20 C16.9828595,20 17.3499987,20.1294105 17.61,20.3882353 C17.8700013,20.6470601 18,21.0176446 18,21.5 C18,21.9647082 17.8685727,22.330881 17.6057143,22.5985294 C17.3428558,22.8661778 16.9771452,23 16.5085714,23 C16.028569,23 15.6571442,22.869119 15.3942857,22.6073529 C15.1314273,22.3455869 15,21.976473 15,21.5 Z" id="!" fill="#FEBD11"></path>
                        </g>
                    </g>
                </g>
            </g>
        </g>
    </g>
</svg>
