<?xml version="1.0" encoding="UTF-8"?>
<svg width="32px" height="32px" viewBox="0 0 32 32" version="1.1" xmlns="http://www.w3.org/2000/svg" xmlns:xlink="http://www.w3.org/1999/xlink">
    <title>EF3FB674-B8CE-4111-AAB5-C9FD8DE446AD</title>
    <g id="🟢-8.-Confirmation" stroke="none" stroke-width="1" fill="none" fill-rule="evenodd">
        <g id="8_Confirmation_768" transform="translate(-74.000000, -777.000000)">
            <g id="ISA-Summary" transform="translate(34.000000, 448.000000)">
                <g id="Total" transform="translate(24.000000, 313.000000)">
                    <g id="Icon" transform="translate(16.000000, 16.000000)">
                        <g id="Group-2" transform="translate(5.000000, 2.000000)">
                            <rect id="Rectangle" stroke="#1E2630" x="0.5" y="0.5" width="21" height="27" rx="2"></rect>
                            <rect id="Rectangle" stroke="#FEBD11" x="3.5" y="5.5" width="15" height="5" rx="1"></rect>
                            <g id="Group-5" transform="translate(3.000000, 14.000000)" fill="#1E2630" fill-rule="nonzero">
                                <polygon id="Line" points="16 0 16 1 12 1 12 0"></polygon>
                                <polygon id="Line" points="4 0 4 1 0 1 0 0"></polygon>
                                <polygon id="Line" points="10 0 10 1 6 1 6 0"></polygon>
                            </g>
                            <g id="Group-3" transform="translate(3.000000, 18.000000)" fill="#1E2630" fill-rule="nonzero">
                                <polygon id="Line" points="16 0 16 1 12 1 12 0"></polygon>
                                <polygon id="Line" points="4 0 4 1 0 1 0 0"></polygon>
                                <polygon id="Line" points="10 0 10 1 6 1 6 0"></polygon>
                            </g>
                            <g id="Group" transform="translate(3.000000, 22.000000)" fill="#1E2630" fill-rule="nonzero">
                                <polygon id="Line" points="16 0 16 1 12 1 12 0"></polygon>
                                <polygon id="Line" points="4 0 4 1 0 1 0 0"></polygon>
                                <polygon id="Line" points="10 0 10 1 6 1 6 0"></polygon>
                            </g>
                        </g>
                    </g>
                </g>
            </g>
        </g>
    </g>
</svg>